<?xml version="1.0" encoding="UTF-8"?><svg id="Layer_2" xmlns="http://www.w3.org/2000/svg" xmlns:xlink="http://www.w3.org/1999/xlink" viewBox="0 0 770.23 612"><defs><style>.cls-1{stroke-dasharray:0 0 .56 1.12;}.cls-1,.cls-2,.cls-3,.cls-4,.cls-5,.cls-6,.cls-7,.cls-8,.cls-9,.cls-10,.cls-11,.cls-12,.cls-13,.cls-14,.cls-15,.cls-16{fill:none;}.cls-1,.cls-3,.cls-4,.cls-5,.cls-17,.cls-6,.cls-7,.cls-8,.cls-18,.cls-19,.cls-20,.cls-21,.cls-22,.cls-23,.cls-9,.cls-10,.cls-24,.cls-25,.cls-26,.cls-27,.cls-28,.cls-29,.cls-11,.cls-30,.cls-12,.cls-13,.cls-14,.cls-15,.cls-16{stroke-linecap:round;stroke-linejoin:round;}.cls-1,.cls-3,.cls-4,.cls-5,.cls-17,.cls-6,.cls-7,.cls-8,.cls-18,.cls-19,.cls-20,.cls-21,.cls-22,.cls-23,.cls-9,.cls-10,.cls-24,.cls-25,.cls-26,.cls-27,.cls-28,.cls-29,.cls-11,.cls-30,.cls-12,.cls-13,.cls-14,.cls-15,.cls-16,.cls-31{stroke:#000;}.cls-1,.cls-21,.cls-22,.cls-10{stroke-width:.45px;}.cls-32{clip-path:url(#clippath);}.cls-2,.cls-33,.cls-34{stroke-width:0px;}.cls-3{stroke-dasharray:0 0 .5 1;stroke-width:.2px;}.cls-4,.cls-5{stroke-dasharray:0 0 .56 1.12;}.cls-4,.cls-20,.cls-23,.cls-9{stroke-width:.45px;}.cls-5{stroke-width:.22px;}.cls-35{clip-path:url(#clippath-1);}.cls-36{clip-path:url(#clippath-4);}.cls-37{clip-path:url(#clippath-3);}.cls-38{clip-path:url(#clippath-2);}.cls-39{clip-path:url(#clippath-7);}.cls-40{clip-path:url(#clippath-8);}.cls-41{clip-path:url(#clippath-6);}.cls-42{clip-path:url(#clippath-5);}.cls-43{clip-path:url(#clippath-9);}.cls-17{stroke-width:.25px;}.cls-17,.cls-19,.cls-20,.cls-22,.cls-25,.cls-30{fill:#e4e4e4;}.cls-6,.cls-7{stroke-dasharray:0 0 .51 1.03;}.cls-6,.cls-29,.cls-30,.cls-16{stroke-width:.41px;}.cls-7{stroke-width:.21px;}.cls-8{stroke-dasharray:0 0 .53 1.06;stroke-width:.21px;}.cls-44{clip-path:url(#clippath-20);}.cls-45{clip-path:url(#clippath-21);}.cls-46{clip-path:url(#clippath-24);}.cls-47{clip-path:url(#clippath-23);}.cls-48{clip-path:url(#clippath-22);}.cls-49{clip-path:url(#clippath-25);}.cls-50{clip-path:url(#clippath-14);}.cls-51{clip-path:url(#clippath-13);}.cls-52{clip-path:url(#clippath-12);}.cls-53{clip-path:url(#clippath-10);}.cls-54{clip-path:url(#clippath-15);}.cls-55{clip-path:url(#clippath-17);}.cls-56{clip-path:url(#clippath-16);}.cls-57{clip-path:url(#clippath-19);}.cls-58{clip-path:url(#clippath-11);}.cls-59{clip-path:url(#clippath-18);}.cls-18,.cls-19,.cls-11,.cls-31{stroke-width:.43px;}.cls-18,.cls-21,.cls-23,.cls-24,.cls-26,.cls-28,.cls-29,.cls-34{fill:#fff;}.cls-24,.cls-25,.cls-14{stroke-width:.4px;}.cls-26,.cls-27,.cls-15{stroke-width:.42px;}.cls-27{fill:#e5e5e5;}.cls-28,.cls-12{stroke-width:.41px;}.cls-13{stroke-dasharray:0 0 .54 1.08;stroke-width:.22px;}.cls-31{stroke-miterlimit:10;}</style><symbol id="New_Symbol_2" viewBox="0 0 7.45 7.45"><circle class="cls-17" cx="3.72" cy="3.72" r="3.6"/></symbol><clipPath id="clippath"><rect class="cls-2" x="462.03" y="12.71" width="3.98" height="3.98"/></clipPath><clipPath id="clippath-1"><rect class="cls-2" x="462" y="12.75" width="3.95" height="3.95"/></clipPath><clipPath id="clippath-2"><rect class="cls-2" x="210.74" y="21.41" width="4.04" height="4.04"/></clipPath><clipPath id="clippath-3"><rect class="cls-2" x="210.69" y="21.46" width="4.01" height="4.01"/></clipPath><clipPath id="clippath-4"><rect class="cls-2" x="210.74" y="28.48" width="4.04" height="4.04"/></clipPath><clipPath id="clippath-5"><rect class="cls-2" x="210.69" y="28.5" width="4.01" height="4.01"/></clipPath><clipPath id="clippath-6"><rect class="cls-2" x="210.74" y="21.41" width="4.04" height="4.04"/></clipPath><clipPath id="clippath-7"><rect class="cls-2" x="210.69" y="21.46" width="4.01" height="4.01"/></clipPath><clipPath id="clippath-8"><rect class="cls-2" x="210.74" y="28.48" width="4.04" height="4.04"/></clipPath><clipPath id="clippath-9"><rect class="cls-2" x="210.69" y="28.5" width="4.01" height="4.01"/></clipPath><clipPath id="clippath-10"><rect class="cls-2" x="210.74" y="21.41" width="4.04" height="4.04"/></clipPath><clipPath id="clippath-11"><rect class="cls-2" x="210.69" y="21.46" width="4.01" height="4.01"/></clipPath><clipPath id="clippath-12"><rect class="cls-2" x="210.74" y="28.48" width="4.04" height="4.04"/></clipPath><clipPath id="clippath-13"><rect class="cls-2" x="210.69" y="28.5" width="4.01" height="4.01"/></clipPath><clipPath id="clippath-14"><rect class="cls-2" x="312.99" y="21.44" width="4.04" height="4.04"/></clipPath><clipPath id="clippath-15"><rect class="cls-2" x="313.05" y="21.41" width="4" height="4"/></clipPath><clipPath id="clippath-16"><rect class="cls-2" x="312.99" y="28.4" width="4.04" height="4.04"/></clipPath><clipPath id="clippath-17"><rect class="cls-2" x="313.05" y="28.44" width="4" height="4"/></clipPath><clipPath id="clippath-18"><rect class="cls-2" x="312.99" y="21.44" width="4.04" height="4.04"/></clipPath><clipPath id="clippath-19"><rect class="cls-2" x="313.05" y="21.41" width="4" height="4"/></clipPath><clipPath id="clippath-20"><rect class="cls-2" x="312.99" y="28.4" width="4.04" height="4.04"/></clipPath><clipPath id="clippath-21"><rect class="cls-2" x="313.05" y="28.44" width="4" height="4"/></clipPath><clipPath id="clippath-22"><rect class="cls-2" x="312.99" y="21.44" width="4.04" height="4.04"/></clipPath><clipPath id="clippath-23"><rect class="cls-2" x="313.05" y="21.41" width="4" height="4"/></clipPath><clipPath id="clippath-24"><rect class="cls-2" x="312.99" y="28.4" width="4.04" height="4.04"/></clipPath><clipPath id="clippath-25"><rect class="cls-2" x="313.05" y="28.44" width="4" height="4"/></clipPath></defs><path class="cls-33" d="m483.35,51.69c-3.12,2.37-6.46,4.42-9.59,6.79-.43.32-.97.65-1.08,1.18,0-.54.54-.97.86-1.4,3.02-2.58,6.35-4.74,9.8-6.57h0Z"/><path class="cls-18" d="m564.34,273.66l19.82.22,20.36-.11V60.74c0-4.63-.32-9.15-.97-13.79-2.05-14.32-4.31-26.39-8.08-39.53l-64.08.11h0c-.86,2.91-1.62,5.82-2.37,8.72-2.48,9.91-4.2,19.71-5.71,30.8-.65,4.52-.97,9.15-.97,13.79v212.92l20.14.11,19.87-.21"/><path class="cls-18" d="m531.39,7.54c-.86,2.91-1.62,5.82-2.37,8.72"/><line class="cls-11" x1="529.02" y1="16.26" x2="597.73" y2="16.26"/><line class="cls-11" x1="563.37" y1="71.62" x2="563.37" y2="16.26"/><rect class="cls-18" x="534.62" y="28.75" width="24.02" height="2.48"/><line class="cls-11" x1="534.62" y1="30.04" x2="558.63" y2="30.04"/><rect class="cls-18" x="568.22" y="28.75" width="24.02" height="2.48"/><line class="cls-11" x1="592.24" y1="30.04" x2="568.22" y2="30.04"/><path class="cls-19" d="m492.72,7.64c0,.11-63.87.11-63.87.11-.86,2.91-1.62,5.82-2.37,8.72-2.48,9.91-4.2,19.71-5.82,30.8-.65,4.52-.97,9.15-.97,13.79"/><path class="cls-18" d="m443.61,9.69c-.54,0-.97,0-1.51-.11"/><path class="cls-18" d="m428.86,7.75c-.86,2.91-1.62,5.82-2.37,8.72"/><path class="cls-18" d="m460.95,71.94c-6.76,70.98-2.25,135.17-1.08,202.05l-20.03.22-20.14-.11V61.06c0-4.63.32-9.26.97-13.79,1.62-11.09,3.34-20.89,5.82-30.8.75-2.91,1.51-5.82,2.37-8.72,0,.86,5.49,1.51,13.03,1.72.54.11.97.11,1.51.11,18.96.75,49.33.11,49.33-1.94,3.77,13.14,6.03,25.2,8.08,39.53.65,4.63.97,9.15.97,13.79v213.14l-20.36.11-19.39-.22c1.17-66.88,5.68-131.07-1.08-202.05"/><path class="cls-18" d="m452.12,15.61c-.32,9.05-2.15,25.74-4.09,42.86l-3.77,1.94"/><line class="cls-13" x1="485.08" y1="17.66" x2="501.66" y2="56.75"/><line class="cls-13" x1="436.49" y1="18.19" x2="420.13" y2="56.75"/><line class="cls-11" x1="486.15" y1="17.66" x2="501.4" y2="53.09"/><line class="cls-11" x1="435.44" y1="18.12" x2="420.02" y2="53.95"/><path class="cls-18" d="m494.12,17.12c.46-.17.92-.37.92-.56"/><path class="cls-18" d="m426.59,16.47c0,.86,5.49,1.51,13.46,1.94"/><line class="cls-11" x1="460.95" y1="71.83" x2="460.95" y2="18.09"/><g class="cls-32"><g class="cls-35"><use width="7.45" height="7.45" transform="translate(461.99 12.74) scale(.53)" xlink:href="#New_Symbol_2"/></g></g><path class="cls-18" d="m440.06,18.31c3.02.22,5.82.54,8.4,1.18l.54-2.37-2.91-1.94"/><line class="cls-11" x1="430.04" y1="8.4" x2="427.67" y2="17.12"/><path class="cls-18" d="m450.72,19.49l-2.69-3.55c-.65-.54-1.4-.22-2.15-.65-2.05-1.29-4.2-3.02-6.57-3.55l-9.54-2.33"/><path class="cls-34" d="m448.46,17.44c-2.26-1.29-4.42-2.37-6.46-3.02"/><path class="cls-33" d="m448.35,17.55c-2.05-1.18-4.09-2.37-6.35-3.12,2.26.65,4.42,1.62,6.46,2.8.32.11.11.54-.11.32h0Z"/><polyline class="cls-18" points="460.95 19.92 460.95 10.01 460.95 7.75"/><path class="cls-18" d="m491.86,8.4l2.26,8.72c-12.92,2.37-27.36,3.77-42.86,2.37l-1.51-2.26,2.58-.97c3.23-1.83,6.68-3.45,10.45-3.77,11.74-.65,22.4-1.62,29.29-3.12"/><path class="cls-34" d="m450.83,19.06c2.58,0,6.89-.97,11.42-1.94"/><path class="cls-33" d="m450.83,18.84c3.88,0,7.65-.97,11.42-1.72-3.77.86-7.54,1.94-11.42,2.15-.22,0-.22-.43,0-.43h0Z"/><path class="cls-18" d="m448.78,15.18c-1.08,8.19-4.42,25.42-7.65,42.33l3.12,2.91"/><path class="cls-34" d="m452.87,17.01c1.08-.54,2.8-.97,5.06-1.29"/><path class="cls-33" d="m452.87,16.8c1.62-.65,3.34-.86,5.17-1.08-1.62.32-3.45.75-4.95,1.51-.32.11-.54-.32-.22-.43h0Z"/><path class="cls-34" d="m447.49,17.77c-1.83.22-4.2-.11-6.35-.43"/><path class="cls-33" d="m447.49,17.98c-2.15.11-4.31-.32-6.46-.65,2.15.22,4.31.54,6.35.22.43-.11.43.43.11.43h0Z"/><path class="cls-18" d="m445.98,15.18l1.94,4.52c0,.11.22.22.32.11.65-.22,2.69-.22,3.34,0,.11,0,.22,0,.32-.11l1.94-4.52c.11-.32-7.86-.32-7.86,0Z"/><path class="cls-34" d="m451.69,19.92c.97,11.2,1.4,31.99,1.72,53.31l-3.45,3.02-3.45-3.02c.86-21.32,1.83-43.08,1.72-53.31"/><path class="cls-31" d="m449.97,76.36h0l-3.55-3.12.11-1.72c.86-20.46,1.72-41.68,1.72-51.59h.11c0,10.02-.86,31.13-1.72,51.7l-.11,1.62,3.45,3.02,3.45-3.02c-.43-22.72-.86-42.43-1.72-53.2h.11c.86,10.88,1.29,30.59,1.72,53.31h0l-3.55,3.02Z"/><polygon class="cls-18" points="440.06 9.47 439.41 20.78 440.71 20.82 441.24 9.58 440.06 9.47"/><polygon class="cls-18" points="481.84 9.47 482.49 20.78 481.08 20.82 480.55 9.58 481.84 9.47"/><line class="cls-11" x1="539.25" y1="28.75" x2="540.76" y2="16.26"/><line class="cls-11" x1="552.82" y1="28.75" x2="551.74" y2="16.26"/><line class="cls-11" x1="587.5" y1="28.75" x2="585.99" y2="16.26"/><line class="cls-11" x1="574.04" y1="28.75" x2="575.01" y2="16.26"/><path class="cls-33" d="m466.55,68.28c-3.12,2.37-6.46,4.42-9.59,6.79-.43.32-.97.65-1.08,1.18,0-.54.54-.97.86-1.4,2.91-2.58,6.35-4.63,9.8-6.57h0Z"/><path class="cls-33" d="m557.99,68.28c3.45,1.83,6.79,3.98,9.8,6.68.32.43.97.86.86,1.4,0-.54-.65-.86-1.08-1.18-3.12-2.48-6.46-4.52-9.59-6.89h0Z"/><path class="cls-13" d="m469.46,19.81v30.8c0,3.77-3.88,6.79-8.62,6.79h0"/><path class="cls-18" d="m562.35,273.67c-1.17-66.88-5.78-130.64.98-201.62"/><path class="cls-18" d="m564.3,273.67c1.17-66.88,5.78-130.64-.98-201.62"/><path class="cls-20" d="m179.75,7.48c-1.35,5.05-2.58,10.11-3.82,15.16-2.7,11.79-4.94,23.36-6.4,34.7-.45,3.37-.67,6.85-.79,10.33,1.24,60.97-.34,135.76-3.03,216.16l24.26.56,20.55-.11c-2.47-80.29-3.59-154.96,1.12-199.32,4.6,44.24,3.59,119.03,1.12,199.32l20.55.11,24.26-.56c-2.7-80.29-4.27-155.19-3.03-216.16,0-3.48-.22-6.85-.79-10.33-2.13-16.06-5.61-32.79-10.11-49.86h-63.89Z"/><path class="cls-23" d="m179.75,7.48c-1.35,5.05-2.58,10.11-3.82,15.16-2.7,11.79-4.94,23.36-6.4,34.7-.45,3.37-.67,6.85-.79,10.33,1.24,60.97-.34,135.76-3.03,216.16l24.26.56,20.55-.11c-2.47-80.29-3.59-154.96,1.12-199.32,4.6,44.24,3.59,119.03,1.12,199.32l20.55.11,24.26-.56c-2.7-80.29-4.27-155.19-3.03-216.16,0-3.48-.22-6.85-.79-10.33-2.13-16.06-5.61-32.79-10.11-49.86-21.34,2.25-42.56,2.25-63.89,0Z"/><line class="cls-9" x1="233.87" y1="24.1" x2="254.2" y2="61.61"/><polyline class="cls-4" points="253.75 61.94 233.42 24.33 234.43 23.76"/><line class="cls-9" x1="189.4" y1="24.1" x2="169.08" y2="61.61"/><line class="cls-4" x1="169.64" y1="61.94" x2="189.97" y2="24.33"/><path class="cls-23" d="m175.93,22.64c7.41,1.12,14.71,1.91,22.01,2.36.56,0,1.01,0,1.57.11,15.95.79,31.89,0,47.72-2.47"/><path class="cls-23" d="m198.5,8.83l-.45,17.29c.56,0,1.01,0,1.57.11l.34-17.29-1.46-.11Z"/><path class="cls-23" d="m224.89,8.83l.45,17.29c-.56,0-1.12,0-1.57.11l-.34-17.29,1.46-.11Z"/><line class="cls-9" x1="211.64" y1="9.17" x2="211.64" y2="84.96"/><path class="cls-9" d="m211.64,25.45c-23.81,75.57-20.89,165.29-21.67,258.95"/><path class="cls-4" d="m189.63,257.44c.22-81.41.56-165.52,21.56-232.22l1.12.34"/><path class="cls-9" d="m211.64,25.45c23.81,75.57,20.89,165.29,21.67,258.95"/><path class="cls-4" d="m233.76,257.44c-.22-81.41-.56-165.52-21.56-232.22l-1.12.34"/><path class="cls-4" d="m219.27,54.2v7.64c0,4.27-3.37,7.64-7.64,7.64h0"/><g class="cls-38"><g class="cls-37"><use width="7.45" height="7.45" transform="translate(210.68 21.45) scale(.54)" xlink:href="#New_Symbol_2"/></g></g><g class="cls-36"><g class="cls-42"><use width="7.45" height="7.45" transform="translate(210.68 28.49) scale(.54)" xlink:href="#New_Symbol_2"/></g></g><path class="cls-33" d="m217.14,81.82c-3.26,2.36-6.63,4.49-9.77,6.85-.34.34-1.01.67-1.01,1.24,0-.56.56-1.01.9-1.35,2.92-2.7,6.4-4.83,9.88-6.74h0Z"/><path class="cls-20" d="m179.75,7.48c-1.35,5.05-2.58,10.11-3.82,15.16-2.7,11.79-4.94,23.36-6.4,34.7-.45,3.37-.67,6.85-.79,10.33,1.24,60.97-.34,135.76-3.03,216.16l24.26.56,20.55-.11c-2.47-80.29-3.59-154.96,1.12-199.32,4.6,44.24,3.59,119.03,1.12,199.32l20.55.11,24.26-.56c-2.7-80.29-4.27-155.19-3.03-216.16,0-3.48-.22-6.85-.79-10.33-2.13-16.06-5.61-32.79-10.11-49.86h-63.89Z"/><path class="cls-23" d="m179.75,7.48c-1.35,5.05-2.58,10.11-3.82,15.16-2.7,11.79-4.94,23.36-6.4,34.7-.45,3.37-.67,6.85-.79,10.33,1.24,60.97-.34,135.76-3.03,216.16l24.26.56,20.55-.11c-2.47-80.29-3.59-154.96,1.12-199.32,4.6,44.24,3.59,119.03,1.12,199.32l20.55.11,24.26-.56c-2.7-80.29-4.27-155.19-3.03-216.16,0-3.48-.22-6.85-.79-10.33-2.13-16.06-5.61-32.79-10.11-49.86-21.34,2.25-42.56,2.25-63.89,0Z"/><line class="cls-9" x1="233.87" y1="24.1" x2="254.2" y2="61.61"/><polyline class="cls-4" points="253.75 61.94 233.42 24.33 234.43 23.76"/><line class="cls-9" x1="189.4" y1="24.1" x2="169.08" y2="61.61"/><line class="cls-4" x1="169.64" y1="61.94" x2="189.97" y2="24.33"/><path class="cls-23" d="m175.93,22.64c7.41,1.12,14.71,1.91,22.01,2.36.56,0,1.01,0,1.57.11,15.95.79,31.89,0,47.72-2.47"/><path class="cls-23" d="m198.5,8.83l-.45,17.29c.56,0,1.01,0,1.57.11l.34-17.29-1.46-.11Z"/><path class="cls-23" d="m224.89,8.83l.45,17.29c-.56,0-1.12,0-1.57.11l-.34-17.29,1.46-.11Z"/><line class="cls-9" x1="211.64" y1="9.17" x2="211.64" y2="84.96"/><path class="cls-9" d="m211.64,25.45c-23.81,75.57-20.89,165.29-21.67,258.95"/><path class="cls-4" d="m189.63,257.44c.22-81.41.56-165.52,21.56-232.22l1.12.34"/><path class="cls-9" d="m211.64,25.45c23.81,75.57,20.89,165.29,21.67,258.95"/><path class="cls-4" d="m233.76,257.44c-.22-81.41-.56-165.52-21.56-232.22l-1.12.34"/><path class="cls-4" d="m219.27,54.2v7.64c0,4.27-3.37,7.64-7.64,7.64h0"/><g class="cls-41"><g class="cls-39"><use width="7.45" height="7.45" transform="translate(210.68 21.45) scale(.54)" xlink:href="#New_Symbol_2"/></g></g><g class="cls-40"><g class="cls-43"><use width="7.45" height="7.45" transform="translate(210.68 28.49) scale(.54)" xlink:href="#New_Symbol_2"/></g></g><path class="cls-33" d="m217.14,81.82c-3.26,2.36-6.63,4.49-9.77,6.85-.34.34-1.01.67-1.01,1.24,0-.56.56-1.01.9-1.35,2.92-2.7,6.4-4.83,9.88-6.74h0Z"/><path class="cls-20" d="m179.75,7.48c-1.35,5.05-2.58,10.11-3.82,15.16-2.7,11.79-4.94,23.36-6.4,34.7-.45,3.37-.67,6.85-.79,10.33,1.24,60.97-.34,135.76-3.03,216.16l24.26.56,20.55-.11c-2.47-80.29-3.59-154.96,1.12-199.32,4.6,44.24,3.59,119.03,1.12,199.32l20.55.11,24.26-.56c-2.7-80.29-4.27-155.19-3.03-216.16,0-3.48-.22-6.85-.79-10.33-2.13-16.06-5.61-32.79-10.11-49.86h-63.89Z"/><path class="cls-23" d="m179.75,7.48c-1.35,5.05-2.58,10.11-3.82,15.16-2.7,11.79-4.94,23.36-6.4,34.7-.45,3.37-.67,6.85-.79,10.33,1.24,60.97-.34,135.76-3.03,216.16l24.26.56,20.55-.11c-2.47-80.29-3.59-154.96,1.12-199.32,4.6,44.24,3.59,119.03,1.12,199.32l20.55.11,24.26-.56c-2.7-80.29-4.27-155.19-3.03-216.16,0-3.48-.22-6.85-.79-10.33-2.13-16.06-5.61-32.79-10.11-49.86-21.34,2.25-42.56,2.25-63.89,0Z"/><line class="cls-9" x1="233.87" y1="24.1" x2="254.2" y2="61.61"/><polyline class="cls-4" points="253.75 61.94 233.42 24.33 234.43 23.76"/><line class="cls-9" x1="189.4" y1="24.1" x2="169.08" y2="61.61"/><line class="cls-4" x1="169.64" y1="61.94" x2="189.97" y2="24.33"/><path class="cls-23" d="m175.93,22.64c7.41,1.12,14.71,1.91,22.01,2.36.56,0,1.01,0,1.57.11,15.95.79,31.89,0,47.72-2.47"/><path class="cls-23" d="m198.5,8.83l-.45,17.29c.56,0,1.01,0,1.57.11l.34-17.29-1.46-.11Z"/><path class="cls-23" d="m224.89,8.83l.45,17.29c-.56,0-1.12,0-1.57.11l-.34-17.29,1.46-.11Z"/><line class="cls-9" x1="211.64" y1="9.17" x2="211.64" y2="84.96"/><path class="cls-9" d="m211.64,25.45c-23.81,75.57-20.89,165.29-21.67,258.95"/><path class="cls-4" d="m189.63,257.44c.22-81.41.56-165.52,21.56-232.22l1.12.34"/><path class="cls-9" d="m211.64,25.45c23.81,75.57,20.89,165.29,21.67,258.95"/><path class="cls-4" d="m233.76,257.44c-.22-81.41-.56-165.52-21.56-232.22l-1.12.34"/><path class="cls-4" d="m219.27,54.2v7.64c0,4.27-3.37,7.64-7.64,7.64h0"/><g class="cls-53"><g class="cls-58"><use width="7.45" height="7.45" transform="translate(210.68 21.45) scale(.54)" xlink:href="#New_Symbol_2"/></g></g><g class="cls-52"><g class="cls-51"><use width="7.45" height="7.45" transform="translate(210.68 28.49) scale(.54)" xlink:href="#New_Symbol_2"/></g></g><path class="cls-33" d="m217.14,81.82c-3.26,2.36-6.63,4.49-9.77,6.85-.34.34-1.01.67-1.01,1.24,0-.56.56-1.01.9-1.35,2.92-2.7,6.4-4.83,9.88-6.74h0Z"/><path class="cls-20" d="m179.75,7.48c-1.35,5.05-2.58,10.11-3.82,15.16-2.7,11.79-4.94,23.36-6.4,34.7-.45,3.37-.67,6.85-.79,10.33,1.24,60.97-.34,135.76-3.03,216.16l24.26.56,20.55-.11c-2.47-80.29-3.59-154.96,1.12-199.32,4.6,44.24,3.59,119.03,1.12,199.32l20.55.11,24.26-.56c-2.7-80.29-4.27-155.19-3.03-216.16,0-3.48-.22-6.85-.79-10.33-2.13-16.06-5.61-32.79-10.11-49.86h-63.89Z"/><path class="cls-23" d="m179.75,7.48c-1.35,5.05-2.58,10.11-3.82,15.16-2.7,11.79-4.94,23.36-6.4,34.7-.45,3.37-.67,6.85-.79,10.33,1.24,60.97-.34,135.76-3.03,216.16l24.26.56,20.55-.11c-2.47-80.29-3.59-154.96,1.12-199.32,4.6,44.24,3.59,119.03,1.12,199.32l20.55.11,24.26-.56c-2.7-80.29-4.27-155.19-3.03-216.16,0-3.48-.22-6.85-.79-10.33-2.13-16.06-5.61-32.79-10.11-49.86-21.34,2.25-42.56,2.25-63.89,0Z"/><line class="cls-5" x1="232.75" y1="24.1" x2="253.07" y2="61.61"/><line class="cls-9" x1="233.87" y1="24.1" x2="254.2" y2="61.61"/><line class="cls-4" x1="233.42" y1="24.33" x2="234.43" y2="23.76"/><line class="cls-5" x1="190.53" y1="24.1" x2="169.64" y2="62.84"/><line class="cls-9" x1="189.4" y1="24.1" x2="169.08" y2="61.61"/><path class="cls-23" d="m175.93,22.64c7.41,1.12,14.71,1.91,22.01,2.36.56,0,1.01,0,1.57.11,15.95.79,31.89,0,47.72-2.47"/><path class="cls-23" d="m198.5,8.83l-.45,17.29c.56,0,1.01,0,1.57.11l.34-17.29-1.46-.11Z"/><path class="cls-23" d="m224.89,8.83l.45,17.29c-.56,0-1.12,0-1.57.11l-.34-17.29,1.46-.11Z"/><polyline class="cls-9" points="211.64 84.96 211.64 9.17 211.64 7.48"/><path class="cls-5" d="m210.51,25.45c-23.81,75.57-20.89,165.29-21.67,258.95"/><path class="cls-9" d="m211.64,25.45c-23.81,75.57-20.89,165.29-21.67,258.95"/><path class="cls-5" d="m212.76,25.45c23.81,75.57,20.89,165.29,21.67,258.95"/><path class="cls-9" d="m211.64,25.45c23.81,75.57,20.89,165.29,21.67,258.95"/><path class="cls-33" d="m217.14,81.82c-3.26,2.36-6.63,4.49-9.77,6.85-.34.34-1.01.67-1.01,1.24,0-.56.56-1.01.9-1.35,2.92-2.7,6.4-4.83,9.88-6.74h0Z"/><path class="cls-22" d="m282.15,7.54c-1.35,5.05-2.58,10.09-3.81,15.14-2.69,11.77-4.93,23.32-6.39,34.65-.45,3.36-.67,6.84-.78,10.32,1.23,60.89-.34,135.57-3.03,215.85l24.22.78,20.52-.34c-2.47-80.17-3.59-154.74,1.12-199.04,4.6,44.18,3.59,118.86,1.12,199.04l20.52.34,24.22-.78c-2.69-80.17-4.26-154.97-3.03-215.85,0-3.48-.22-6.84-.78-10.32-2.13-16.03-5.61-32.74-10.09-49.79,0,0-63.8,0-63.8,0Z"/><path class="cls-21" d="m282.15,7.54c-1.35,5.05-2.58,10.09-3.81,15.14-2.69,11.77-4.93,23.32-6.39,34.65-.45,3.36-.67,6.84-.78,10.32,1.23,60.89-.34,135.57-3.03,215.85l24.22.78,20.52-.34c-2.47-80.17-3.59-154.74,1.12-199.04,4.6,44.18,3.59,118.86,1.12,199.04l20.52.34,24.22-.78c-2.69-80.17-4.26-154.97-3.03-215.85,0-3.48-.22-6.84-.78-10.32-2.13-16.03-5.61-32.74-10.09-49.79-21.31,2.13-42.61,2.13-63.8,0Z"/><line class="cls-10" x1="336.2" y1="24.02" x2="356.49" y2="61.48"/><polyline class="cls-1" points="356.04 61.81 335.75 24.25 336.76 23.69"/><line class="cls-10" x1="291.79" y1="24.02" x2="271.5" y2="61.48"/><line class="cls-1" x1="272.06" y1="61.81" x2="292.35" y2="24.25"/><path class="cls-21" d="m278.34,22.68c7.29,1.12,14.69,1.91,21.98,2.35.56,0,1.12,0,1.57.11,15.92.78,31.85,0,47.66-2.47"/><path class="cls-21" d="m300.88,8.77l-.45,17.27c.56,0,1.12,0,1.57.11l.34-17.27-1.46-.11Z"/><path class="cls-21" d="m327.23,8.77l.45,17.27c-.56,0-1.12,0-1.57.11l-.34-17.27,1.46-.11Z"/><line class="cls-10" x1="314" y1="9.11" x2="314" y2="84.8"/><path class="cls-10" d="m314,25.37c-23.77,75.58-20.86,165.28-21.64,258.8"/><path class="cls-1" d="m293.14,257.03c0,11.1-.11,15.81-.11,27.14h-1.12c.11-11.21.11-16.03.11-27.02.22-81.3.56-165.28,21.53-231.89l1.12.34"/><path class="cls-10" d="m314,25.37c23.77,75.58,20.86,165.28,21.64,258.8"/><path class="cls-1" d="m334.96,257.03c0,11.1.11,15.81.11,27.14h1.12c-.11-11.21-.11-16.03-.11-27.02-.22-81.3-.56-165.28-21.53-231.89l-1.12.34"/><path class="cls-1" d="m321.62,54.07v7.63c0,4.26-3.36,7.63-7.62,7.63h0"/><g class="cls-50"><g class="cls-54"><use width="7.45" height="7.45" transform="translate(313.03 21.4) scale(.54)" xlink:href="#New_Symbol_2"/></g></g><g class="cls-56"><g class="cls-55"><use width="7.45" height="7.45" transform="translate(313.03 28.43) scale(.54)" xlink:href="#New_Symbol_2"/></g></g><path class="cls-33" d="m319.49,81.66c-3.25,2.35-6.62,4.49-9.76,6.84-.34.34-1.01.67-1.12,1.23,0-.56.56-1.01.9-1.35,3.03-2.69,6.5-4.82,9.98-6.73h0Z"/><path class="cls-22" d="m282.15,7.54c-1.35,5.05-2.58,10.09-3.81,15.14-2.69,11.77-4.93,23.32-6.39,34.65-.45,3.36-.67,6.84-.78,10.32,1.23,60.89-.34,135.57-3.03,215.85l24.22.78,20.52-.34c-2.47-80.17-3.59-154.74,1.12-199.04,4.6,44.18,3.59,118.86,1.12,199.04l20.52.34,24.22-.78c-2.69-80.17-4.26-154.97-3.03-215.85,0-3.48-.22-6.84-.78-10.32-2.13-16.03-5.61-32.74-10.09-49.79,0,0-63.8,0-63.8,0Z"/><path class="cls-21" d="m282.15,7.54c-1.35,5.05-2.58,10.09-3.81,15.14-2.69,11.77-4.93,23.32-6.39,34.65-.45,3.36-.67,6.84-.78,10.32,1.23,60.89-.34,135.57-3.03,215.85l24.22.78,20.52-.34c-2.47-80.17-3.59-154.74,1.12-199.04,4.6,44.18,3.59,118.86,1.12,199.04l20.52.34,24.22-.78c-2.69-80.17-4.26-154.97-3.03-215.85,0-3.48-.22-6.84-.78-10.32-2.13-16.03-5.61-32.74-10.09-49.79-21.31,2.13-42.61,2.13-63.8,0Z"/><line class="cls-10" x1="336.2" y1="24.02" x2="356.49" y2="61.48"/><polyline class="cls-1" points="356.04 61.81 335.75 24.25 336.76 23.69"/><line class="cls-10" x1="291.79" y1="24.02" x2="271.5" y2="61.48"/><line class="cls-1" x1="272.06" y1="61.81" x2="292.35" y2="24.25"/><path class="cls-21" d="m278.34,22.68c7.29,1.12,14.69,1.91,21.98,2.35.56,0,1.12,0,1.57.11,15.92.78,31.85,0,47.66-2.47"/><path class="cls-21" d="m300.88,8.77l-.45,17.27c.56,0,1.12,0,1.57.11l.34-17.27-1.46-.11Z"/><path class="cls-21" d="m327.23,8.77l.45,17.27c-.56,0-1.12,0-1.57.11l-.34-17.27,1.46-.11Z"/><line class="cls-10" x1="314" y1="9.11" x2="314" y2="84.8"/><path class="cls-10" d="m314,25.37c-23.77,75.58-20.86,165.28-21.64,258.8"/><path class="cls-1" d="m293.14,257.03c0,11.1-.11,15.81-.11,27.14h-1.12c.11-11.21.11-16.03.11-27.02.22-81.3.56-165.28,21.53-231.89l1.12.34"/><path class="cls-10" d="m314,25.37c23.77,75.58,20.86,165.28,21.64,258.8"/><path class="cls-1" d="m334.96,257.03c0,11.1.11,15.81.11,27.14h1.12c-.11-11.21-.11-16.03-.11-27.02-.22-81.3-.56-165.28-21.53-231.89l-1.12.34"/><path class="cls-1" d="m321.62,54.07v7.63c0,4.26-3.36,7.63-7.62,7.63h0"/><g class="cls-59"><g class="cls-57"><use width="7.45" height="7.45" transform="translate(313.03 21.4) scale(.54)" xlink:href="#New_Symbol_2"/></g></g><g class="cls-44"><g class="cls-45"><use width="7.45" height="7.45" transform="translate(313.03 28.43) scale(.54)" xlink:href="#New_Symbol_2"/></g></g><path class="cls-33" d="m319.49,81.66c-3.25,2.35-6.62,4.49-9.76,6.84-.34.34-1.01.67-1.12,1.23,0-.56.56-1.01.9-1.35,3.03-2.69,6.5-4.82,9.98-6.73h0Z"/><path class="cls-22" d="m282.15,7.54c-1.35,5.05-2.58,10.09-3.81,15.14-2.69,11.77-4.93,23.32-6.39,34.65-.45,3.36-.67,6.84-.78,10.32,1.23,60.89-.34,135.57-3.03,215.85l24.22.78,20.52-.34c-2.47-80.17-3.59-154.74,1.12-199.04,4.6,44.18,3.59,118.86,1.12,199.04l20.52.34,24.22-.78c-2.69-80.17-4.26-154.97-3.03-215.85,0-3.48-.22-6.84-.78-10.32-2.13-16.03-5.61-32.74-10.09-49.79,0,0-63.8,0-63.8,0Z"/><path class="cls-21" d="m282.15,7.54c-1.35,5.05-2.58,10.09-3.81,15.14-2.69,11.77-4.93,23.32-6.39,34.65-.45,3.36-.67,6.84-.78,10.32,1.23,60.89-.34,135.57-3.03,215.85l24.22.78,20.52-.34c-2.47-80.17-3.59-154.74,1.12-199.04,4.6,44.18,3.59,118.86,1.12,199.04l20.52.34,24.22-.78c-2.69-80.17-4.26-154.97-3.03-215.85,0-3.48-.22-6.84-.78-10.32-2.13-16.03-5.61-32.74-10.09-49.79-21.31,2.13-42.61,2.13-63.8,0Z"/><line class="cls-10" x1="336.2" y1="24.02" x2="356.49" y2="61.48"/><polyline class="cls-1" points="356.04 61.81 335.75 24.25 336.76 23.69"/><line class="cls-10" x1="291.79" y1="24.02" x2="271.5" y2="61.48"/><line class="cls-1" x1="272.06" y1="61.81" x2="292.35" y2="24.25"/><path class="cls-21" d="m278.34,22.68c7.29,1.12,14.69,1.91,21.98,2.35.56,0,1.12,0,1.57.11,15.92.78,31.85,0,47.66-2.47"/><path class="cls-21" d="m300.88,8.77l-.45,17.27c.56,0,1.12,0,1.57.11l.34-17.27-1.46-.11Z"/><path class="cls-21" d="m327.23,8.77l.45,17.27c-.56,0-1.12,0-1.57.11l-.34-17.27,1.46-.11Z"/><line class="cls-10" x1="314" y1="9.11" x2="314" y2="84.8"/><path class="cls-10" d="m314,25.37c-23.77,75.58-20.86,165.28-21.64,258.8"/><path class="cls-1" d="m293.14,257.03c0,11.1-.11,15.81-.11,27.14h-1.12c.11-11.21.11-16.03.11-27.02.22-81.3.56-165.28,21.53-231.89l1.12.34"/><path class="cls-10" d="m314,25.37c23.77,75.58,20.86,165.28,21.64,258.8"/><path class="cls-1" d="m334.96,257.03c0,11.1.11,15.81.11,27.14h1.12c-.11-11.21-.11-16.03-.11-27.02-.22-81.3-.56-165.28-21.53-231.89l-1.12.34"/><path class="cls-1" d="m321.62,54.07v7.63c0,4.26-3.36,7.63-7.62,7.63h0"/><g class="cls-48"><g class="cls-47"><use width="7.45" height="7.45" transform="translate(313.03 21.4) scale(.54)" xlink:href="#New_Symbol_2"/></g></g><g class="cls-46"><g class="cls-49"><use width="7.45" height="7.45" transform="translate(313.03 28.43) scale(.54)" xlink:href="#New_Symbol_2"/></g></g><path class="cls-33" d="m319.49,81.66c-3.25,2.35-6.62,4.49-9.76,6.84-.34.34-1.01.67-1.12,1.23,0-.56.56-1.01.9-1.35,3.03-2.69,6.5-4.82,9.98-6.73h0Z"/><path class="cls-22" d="m282.15,7.54c-1.35,5.05-2.58,10.09-3.81,15.14-2.69,11.77-4.93,23.32-6.39,34.65-.45,3.36-.67,6.84-.78,10.32,1.23,60.89-.34,135.57-3.03,215.85l24.22.78,20.52-.34c-2.47-80.17-3.59-154.74,1.12-199.04,4.6,44.18,3.59,118.86,1.12,199.04l20.52.34,24.22-.78c-2.69-80.17-4.26-154.97-3.03-215.85,0-3.48-.22-6.84-.78-10.32-2.13-16.03-5.61-32.74-10.09-49.79,0,0-63.8,0-63.8,0Z"/><path class="cls-21" d="m282.15,7.54c-1.35,5.05-2.58,10.09-3.81,15.14-2.69,11.77-4.93,23.32-6.39,34.65-.45,3.36-.67,6.84-.78,10.32,1.23,60.89-.34,135.57-3.03,215.85l24.22.78,20.52-.34c-2.47-80.17-3.59-154.74,1.12-199.04,4.6,44.18,3.59,118.86,1.12,199.04l20.52.34,24.22-.78c-2.69-80.17-4.26-154.97-3.03-215.85,0-3.48-.22-6.84-.78-10.32-2.13-16.03-5.61-32.74-10.09-49.79,0,0-63.8,0-63.8,0Z"/><line class="cls-10" x1="278.34" y1="22.68" x2="349.65" y2="22.68"/><path class="cls-33" d="m308.72,81.66c3.48,1.91,6.95,4.04,9.87,6.73.34.45,1.01.78.9,1.35,0-.56-.67-.9-1.12-1.23-3.14-2.35-6.5-4.49-9.64-6.84h0Z"/><path class="cls-33" d="m295.72,66.41c-3.7,62.91-2.35,153.96-3.14,217.76,0,.11-.11.22-.22.22s-.22-.11-.22-.22c.9-64.25-.22-154.63,3.59-217.76h0Z"/><path class="cls-33" d="m331.94,66.41c3.81,62.91,2.69,153.96,3.59,217.76,0,.11-.11.22-.22.22s-.22-.11-.22-.22c-.78-64.25.56-154.63-3.14-217.76h0Z"/><line class="cls-10" x1="295.72" y1="22.68" x2="295.72" y2="36.02"/><rect class="cls-21" x="283.61" y="35.8" width="24.33" height="2.13"/><line class="cls-10" x1="332.5" y1="22.68" x2="332.5" y2="36.02"/><rect class="cls-21" x="320.39" y="35.8" width="24.33" height="2.13"/><polygon class="cls-21" points="285.51 7.43 285.51 23.8 283.94 23.8 283.94 7.54 285.51 7.43"/><polygon class="cls-21" points="342.7 7.43 342.7 23.8 344.27 23.8 344.27 7.54 342.7 7.43"/><polygon class="cls-21" points="309.29 7.43 309.29 23.8 307.83 23.8 307.83 7.54 309.29 7.43"/><polygon class="cls-21" points="318.93 7.43 318.93 23.8 320.39 23.8 320.39 7.54 318.93 7.43"/><line class="cls-10" x1="314" y1="84.8" x2="314" y2="7.54"/><circle class="cls-23" cx="215.01" cy="13.99" r="1.91"/><circle class="cls-23" cx="215.01" cy="20.51" r="1.91"/><path class="cls-25" d="m296.6,306.39c-.8,3-1.5,5.9-2.2,8.81-3.3,14.31-5.7,28.12-6.9,41.33-.3,29.02,1.9,65.54,4.9,104.67l-4.9,122.58,20.21,7.2c7.2-1.3,14.31-4.1,21.41-8.01l-4.9-122.38c.8-32.92,2.4-62.84,6.1-86.26,3.7,23.52,5.4,53.33,6.1,86.26l-4.9,122.38c7.1,3.8,14.21,6.6,21.41,8.01l20.21-7.2-4.9-122.58c3-39.13,5.2-75.65,4.9-104.67-1.4-15.91-4.6-32.72-9.11-50.13h-67.44Z"/><path class="cls-24" d="m296.6,306.39c-.8,3-1.5,5.9-2.2,8.81-3.3,14.31-5.7,28.12-6.9,41.33-.3,27.82,1.7,62.64,4.5,100.06.2,3,.3,6.1.2,9.11l-4.7,117.98,20.21,7.2c7.2-1.3,14.31-4.1,21.41-8.01l-4.8-120.58c-.1-1.2-.1-2.5,0-3.7.8-32.22,2.5-61.44,6.1-84.45,3.5,22.51,5.2,50.93,6,82.35.1,2.6,0,5.2-.1,7.91l-4.7,118.48c7.1,3.8,14.21,6.6,21.41,8.01l20.21-7.2-4.7-117.68c-.1-3.2-.1-6.4.2-9.71,2.8-37.32,4.8-72.05,4.5-99.86-1.4-15.91-4.6-32.72-9.11-50.13-22.31,3.9-44.83,3.9-67.54.1Z"/><path class="cls-33" d="m311.01,328.41c-1.7,10.51-2.5,22.01-3,32.72-3,76.55-.5,153.2-.2,229.85,0,.1-.1.2-.2.2s-.2-.1-.2-.2c-.2-76.55-2.5-153.3.5-229.85.6-10.71,1.5-22.21,3.1-32.72h0Z"/><path class="cls-33" d="m349.54,328.41c1.7,10.51,2.5,22.01,3,32.72,3.1,76.55.7,153.2.6,229.85,0,.1-.1.2-.2.2s-.2-.1-.2-.2c.3-76.55,2.8-153.3-.2-229.85-.5-10.71-1.3-22.21-3-32.72h0Z"/><path class="cls-3" d="m338.23,318.6v28.62c0,3.5-3.6,6.3-7.91,6.3h0"/><line class="cls-3" x1="354.34" y1="316.5" x2="373.25" y2="359.13"/><path class="cls-24" d="m294.4,315.2c6.1.9,12.21,1.5,18.21,1.9.4,0,.8.1,1.2.1,18.01,1.2,35.42.5,52.33-2"/><path class="cls-24" d="m313.31,308.5l-.7,9.81c.4,0,.8.1,1.2.1l.6-9.81-1.1-.1Z"/><path class="cls-24" d="m347.33,308.5l.7,9.81c-.4,0-.8.1-1.2.1l-.6-9.81,1.1-.1Z"/><line class="cls-14" x1="355.34" y1="316.5" x2="373.15" y2="356.53"/><line class="cls-3" x1="306.31" y1="316.5" x2="288.2" y2="358.13"/><line class="cls-14" x1="305.31" y1="316.5" x2="287.5" y2="356.53"/><path class="cls-33" d="m335.83,370.64c-3,2.1-6.5,4.4-9.51,6.6-.8.6-1.6,1.1-2.2,1.8-.2.2-.5.5-.5.8,0-.6.7-1.1,1.1-1.6,3.3-3,7.2-5.4,11.11-7.6h0Z"/><circle class="cls-24" cx="333.43" cy="313.7" r="2.2"/><polyline class="cls-14" points="330.32 306.39 330.32 309.2 330.32 374.24"/><path class="cls-24" d="m399.06,306.24c-.8,3-1.5,5.9-2.2,8.81-3.2,13.51-5.5,26.72-6.7,39.23-.1,1.4-.2,2.8-.2,4.2-.2,28.62,1.9,64.34,4.9,102.57l-4.9,122.58,20.21,7.2c7.2-1.3,14.31-4.1,21.41-8.01l-4.9-122.38c.8-32.92,2.4-62.84,6.1-86.26,3.7,23.52,5.4,53.33,6.1,86.26l-4.9,122.38c7.1,3.8,14.21,6.6,21.41,8.01l20.21-7.2-4.9-122.58c3-38.42,5.1-74.25,4.9-102.97,0-1.1-.1-2.2-.2-3.3-1.5-15.41-4.6-31.72-8.91-48.53h-67.44Z"/><path class="cls-33" d="m413.47,342.07c-1.2,7.2-2.1,16.01-2.5,23.21-.7,10.21-1,20.81-1.3,31.12-1.3,64.84.3,129.58.7,194.42,0,.1-.1.2-.2.2s-.2-.1-.2-.2c-.3-64.84-1.8-129.68-.4-194.42.3-10.21.6-20.91,1.4-31.12.4-7.2,1.3-16.01,2.5-23.21h0Z"/><path class="cls-33" d="m451.99,342.07c1.2,7.2,2.1,16.01,2.6,23.21.7,10.21,1.1,20.81,1.4,31.12,1.4,64.84-.1,129.58-.4,194.42,0,.1-.1.2-.2.2s-.2-.1-.2-.2c.4-64.84,2-129.58.7-194.42-.3-10.21-.6-20.91-1.3-31.12-.5-7.2-1.4-16.01-2.6-23.21h0Z"/><path class="cls-33" d="m425.98,370.49c3.9,2.2,7.81,4.6,11.21,7.6.4.5,1.1.9,1.1,1.6,0-.3-.3-.6-.5-.8-.7-.7-1.5-1.2-2.2-1.8-3-2.2-6.5-4.4-9.61-6.6h0Z"/><polyline class="cls-14" points="432.78 306.24 432.78 309.15 432.78 374.19"/><line class="cls-14" x1="396.86" y1="315.05" x2="468.7" y2="315.05"/><line class="cls-14" x1="413.47" y1="315.05" x2="413.47" y2="329.46"/><rect class="cls-24" x="401.06" y="329.26" width="24.52" height="2.5"/><line class="cls-14" x1="401.06" y1="330.46" x2="425.58" y2="330.46"/><line class="cls-14" x1="452.29" y1="315.05" x2="452.29" y2="329.46"/><rect class="cls-24" x="440.18" y="329.26" width="24.52" height="2.5"/><line class="cls-14" x1="464.7" y1="330.46" x2="440.18" y2="330.46"/><polyline class="cls-24" points="402.06 315.15 402.06 306.24 403.26 306.24 403.26 315.15"/><polyline class="cls-24" points="402.06 315.15 402.06 316.35 403.26 316.35 403.26 315.15"/><polyline class="cls-24" points="463.1 315.15 463.1 306.24 461.9 306.24 461.9 315.15"/><polyline class="cls-24" points="463.1 315.15 463.1 316.35 461.9 316.35 461.9 315.15"/><polyline class="cls-24" points="424.07 315.15 424.07 306.24 425.28 306.24 425.28 315.15"/><polyline class="cls-24" points="424.07 315.15 424.07 316.35 425.28 316.35 425.28 315.15"/><polyline class="cls-24" points="441.69 315.15 441.69 306.24 440.48 306.24 440.48 315.15"/><polyline class="cls-24" points="441.69 315.15 441.69 316.35 440.48 316.35 440.48 315.15"/><polyline class="cls-12" points="147.66 332.14 147.66 339.52 160.16 342.79"/><polyline class="cls-12" points="172.86 332.14 172.86 340.95 172.86 332.14"/><path class="cls-30" d="m119.77,367.45c.1-6.67-6.15-47.18-9.95-61.13H42.43c-.92,3.49-1.85,6.87-2.56,10.26-2.36,10.05-4.21,19.69-5.95,30.87-1.03,6.67-1.54,13.33-1.33,20"/><path class="cls-29" d="m42.43,306.22c-.92,3.49-1.85,6.87-2.56,10.26-2.36,10.05-4.21,19.69-5.95,30.87-1.03,6.67-1.54,13.33-1.33,20l1.85,91.79c.1,5.44,0,10.87-.21,16.41l-5.64,126.15,24,2.87,22.15-2.97c-5.44-84.61-8.82-166.26,1.44-217.23,10.26,51.08,6.77,132.61,1.44,217.23l22.15,2.97,24-2.87-5.64-126.15c-.31-5.44-.31-10.87-.21-16.41l1.85-91.79c.1-6.67-6.15-47.18-9.95-61.13-22.46,2.56-44.92,2.56-67.38,0Z"/><line class="cls-6" x1="104.9" y1="317.7" x2="106.02" y2="317.39"/><line class="cls-7" x1="104.38" y1="317.5" x2="119.25" y2="367.96"/><line class="cls-7" x1="47.87" y1="317.5" x2="33" y2="367.96"/><path class="cls-29" d="m39.87,316.47c5.74.92,11.38,1.64,17.13,2.15.51,0,1.13.1,1.64.1,17.85,1.44,35.69.72,53.54-2.26"/><path class="cls-7" d="m82.95,319.55v33.23c0,3.28-3.08,5.95-6.87,5.95h0"/><path class="cls-33" d="m52.59,604.57c-.21-80.51-2.87-161.02-.31-241.43.41-8.62.92-18.26,1.64-26.77l.92-8.92,1.44-8.82c0-.1.1-.21.21-.21s.21.1.21.21l-1.44,8.82-.92,8.92c-.82,8.51-1.33,18.26-1.74,26.77-2.67,80.41-.21,160.92,0,241.43h0Z"/><path class="cls-33" d="m99.66,604.57c.1-80.51,2.67-161.02,0-241.43-.41-8.62-.92-18.26-1.74-26.77l-.92-8.92-1.44-8.82c0-.1,0-.21.21-.21.1,0,.21.1.21.21l1.44,8.82.92,8.92c.82,8.51,1.23,18.26,1.64,26.77,2.67,80.41,0,160.92-.31,241.43h0Z"/><polyline class="cls-16" points="66.23 308.06 60.59 313.7 66.13 319.24"/><path class="cls-33" d="m50.13,318.01c-3.59,12.82-3.38,26.67-4.31,39.9.51-10.05.82-20.1,2.05-30.15-.1-.51,1.74-11.79,2.26-9.74h0Z"/><path class="cls-33" d="m102.43,317.91c1.95,6.46,2.36,13.23,2.97,19.9.51,6.67.72,13.44,1.03,20.1-.92-13.23-.82-27.08-4.31-39.9-.1-.31.31-.41.31-.1h0Z"/><line class="cls-16" x1="105.41" y1="317.5" x2="119.66" y2="365.39"/><line class="cls-16" x1="46.84" y1="317.5" x2="32.59" y2="365.39"/><line class="cls-16" x1="76.18" y1="384.27" x2="76.18" y2="319.55"/><polyline class="cls-29" points="58.54 307.65 58.13 320.47 56.49 320.37 56.9 307.55"/><polyline class="cls-29" points="93.72 307.65 94.13 320.47 95.77 320.37 95.36 307.55"/><path class="cls-28" d="m145,306.33c-.92,3.48-1.84,6.86-2.56,10.24-2.36,10.04-4.2,19.67-5.94,30.83-1.02,6.66-1.54,13.32-1.33,19.97l1.84,91.67c.1,5.43,0,10.86-.2,16.39l-5.63,125.98,23.97,3.07,22.12-3.28c-5.43-84.5-8.81-166.03,1.43-216.94,10.24,51.01,6.76,132.44,1.43,216.94l22.12,3.28,23.97-3.07-5.63-125.98c-.31-5.43-.31-10.86-.2-16.39l1.84-91.67c.1-6.66-6.15-47.12-9.94-61.05h-67.29Z"/><rect class="cls-28" x="147.66" y="329.89" width="25.2" height="2.25"/><path class="cls-33" d="m154.83,604.49c.2-67.29-.72-134.59,1.13-201.88.41-12.8.92-25.91,2.05-38.82l.92-7.68-.92,7.68c-1.54,18.03-2.05,36.26-2.46,54.29-1.33,61.87.51,125.37-.72,186.42h0Z"/><path class="cls-33" d="m201.95,604.49c0-67.29.92-134.59-.82-201.88-.41-12.8-.92-25.91-2.05-38.82l-.92-7.68.92,7.68c1.13,12.8,1.74,25.91,2.05,38.82,1.54,66.99,1.84,135.61.82,201.88h0Z"/><polyline class="cls-12" points="178.59 384.28 178.59 319.54 178.59 306.33"/><line class="cls-12" x1="142.44" y1="316.57" x2="214.65" y2="316.57"/><line class="cls-12" x1="160.26" y1="329.89" x2="160.26" y2="316.57"/><rect class="cls-28" x="184.12" y="329.89" width="25.2" height="2.25"/><line class="cls-12" x1="196.72" y1="329.89" x2="196.72" y2="316.57"/><rect class="cls-28" x="148.38" y="306.33" width="1.64" height="13.42"/><rect class="cls-28" x="207.48" y="306.33" width="1.64" height="13.42"/><rect class="cls-28" x="170.3" y="306.33" width="1.64" height="13.42"/><rect class="cls-28" x="185.05" y="306.33" width="1.64" height="13.42"/><path class="cls-33" d="m82.33,379.96c-3.38,2.46-6.87,4.62-10.15,7.18-.41.41-1.03.72-1.13,1.33,0-.62.62-1.03.92-1.44,3.18-2.87,6.77-5.03,10.36-7.08h0Z"/><path class="cls-33" d="m173.06,380.38c3.58,2.05,7.17,4.2,10.24,6.96.41.41,1.02.82.92,1.43,0-.61-.72-.92-1.13-1.33-3.18-2.56-6.66-4.61-10.04-7.07h0Z"/><circle class="cls-29" cx="75.87" cy="313.6" r="2.05"/><circle class="cls-29" cx="64.79" cy="313.6" r="2.05"/><path class="cls-27" d="m551.24,306.41c-.85,3.17-1.8,6.34-2.54,9.51-3.07,12.05-5.5,24.2-7.19,36.36-.53,3.49-.74,6.87-.85,10.46l-3.8,105.16,24.2,3.49,20.93-3.49c-.11-32.98.85-63.1,3.38-90.89,2.64,27.8,3.49,57.81,3.38,90.89l20.93,3.49,24.2-3.49-3.8-105.16c-.11-3.49-.42-6.98-.85-10.46-2.11-15.33-5.39-30.65-9.72-45.87h-68.28Z"/><path class="cls-26" d="m551.24,306.41c-.85,3.17-1.8,6.34-2.54,9.51-3.07,12.05-5.5,24.2-7.19,36.36-.53,3.49-.74,6.87-.85,10.46l-3.8,105.16,24.2,3.49,20.93-3.49c-.11-32.98.85-63.1,3.38-90.89,2.64,27.8,3.49,57.81,3.38,90.89l20.93,3.49,24.2-3.49-3.8-105.16c-.11-3.49-.42-6.98-.85-10.46-2.11-15.33-5.39-30.65-9.72-45.87-22.83,3.28-45.55,3.28-68.28,0Z"/><path class="cls-34" d="m616.77,380.08c-.63-26.74-2.01-49.25-4.76-63.2"/><path class="cls-33" d="m616.77,380.08c-.74-21.14-1.16-42.38-4.97-63.2-.11-.21.32-.32.42-.11,3.59,20.82,3.91,42.17,4.54,63.31h0Z"/><path class="cls-34" d="m553.99,380.08c.63-26.74,2.01-49.25,4.76-63.2"/><path class="cls-33" d="m553.99,380.08c.63-21.14.85-42.38,4.54-63.31,0-.21.53-.21.42.11-3.8,20.82-4.23,42.06-4.97,63.2h0Z"/><path class="cls-34" d="m561.07,471.29c0-62.78,3.49-126.62,5.18-153.89"/><path class="cls-33" d="m561.07,471.29c0-51.37,1.9-102.63,4.97-153.89,0-.11.11-.21.21-.21s.21.11.21.21c-3.28,51.26-5.28,102.52-5.39,153.89h0Z"/><path class="cls-26" d="m548.7,315.92c24.41,3.49,48.93,3.49,73.35,0"/><path class="cls-8" d="m591.3,318.46v32.87c0,2.64-2.64,4.86-5.92,4.86h0"/><line class="cls-15" x1="573.43" y1="318.25" x2="573.96" y2="308.63"/><polygon class="cls-26" points="566.99 319.2 567.62 308.31 566.46 308.21 565.72 319.09 566.99 319.2"/><path class="cls-34" d="m609.69,471.29c0-62.78-3.49-126.62-5.18-153.89"/><path class="cls-33" d="m609.69,471.29c-.21-51.37-2.11-102.63-5.39-153.89,0-.11.11-.21.21-.21s.21.11.21.21c3.06,51.26,4.97,102.52,4.97,153.89h0Z"/><polygon class="cls-26" points="603.66 319.2 603.03 308.31 604.3 308.21 605.04 319.09 603.66 319.2"/><path class="cls-26" d="m660.73,306.41c-.85,3.17-1.8,6.34-2.54,9.51-3.07,12.05-5.5,24.2-7.19,36.36-.53,3.49-.74,6.87-.85,10.46l-3.8,105.16,24.2,3.49,20.93-3.49c-.11-32.98.85-56.76,3.38-84.45,2.64,27.8,3.49,51.47,3.38,84.45l20.93,3.49,24.2-3.49-3.8-105.16c-.11-3.49-.42-6.98-.85-10.46-2.11-15.33-5.39-30.65-9.72-45.87h-68.28Z"/><line class="cls-15" x1="676.58" y1="329.35" x2="676.58" y2="315.82"/><path class="cls-34" d="m718.75,471.29c0-52.63-3.49-106.11-5.18-129.05"/><path class="cls-33" d="m718.54,471.29c0-43.12-1.9-86.14-4.97-129.05,3.28,42.91,5.28,86.03,5.39,129.05,0,.21-.42.21-.42,0h0Z"/><path class="cls-34" d="m670.56,471.29c0-52.63,3.49-106.11,5.18-129.05"/><path class="cls-33" d="m670.35,471.29c.21-43.12,2.11-86.14,5.39-129.05-3.17,42.91-4.97,86.03-4.97,129.05,0,.21-.42.21-.42,0h0Z"/><polyline class="cls-26" points="694.87 383.35 694.87 318.46 694.87 306.41"/><line class="cls-15" x1="658.19" y1="315.82" x2="731.54" y2="315.82"/><rect class="cls-26" x="663.8" y="306.41" width="1.37" height="11.73"/><rect class="cls-26" x="724.14" y="306.41" width="1.37" height="11.73"/><rect class="cls-26" x="686.94" y="306.41" width="1.37" height="11.73"/><rect class="cls-26" x="701" y="306.41" width="1.37" height="11.73"/><rect class="cls-26" x="663.58" y="333.36" width="26" height="2.33"/><rect class="cls-26" x="663.58" y="329.35" width="26" height="2.33"/><line class="cls-15" x1="712.73" y1="329.35" x2="712.73" y2="315.82"/><rect class="cls-26" x="699.73" y="333.47" width="26" height="2.33"/><rect class="cls-26" x="699.73" y="329.35" width="26" height="2.33"/><circle class="cls-26" cx="588.12" cy="313.91" r="2.11"/><circle class="cls-26" cx="577.13" cy="313.91" r="2.11"/><line class="cls-15" x1="585.38" y1="377.01" x2="585.38" y2="318.46"/><line class="cls-15" x1="585.38" y1="308.95" x2="585.38" y2="306.41"/><path class="cls-33" d="m590.98,373.95c-3.49,2.54-7.08,4.76-10.46,7.4-.42.42-1.06.74-1.16,1.37,0-.63.63-1.06.95-1.48,3.28-2.96,6.98-5.28,10.67-7.29h0Z"/><path class="cls-33" d="m688.84,378.91c3.7,2.11,7.4,4.33,10.57,7.19.32.42,1.06.85.95,1.48,0-.63-.74-.95-1.16-1.37-3.28-2.54-6.98-4.76-10.36-7.29h0Z"/><line class="cls-8" x1="614.02" y1="316.87" x2="629.13" y2="357.03"/><line class="cls-8" x1="556.63" y1="316.87" x2="541.52" y2="357.03"/><line class="cls-15" x1="615.08" y1="316.87" x2="629.45" y2="354.6"/><line class="cls-15" x1="555.57" y1="316.87" x2="541.2" y2="354.6"/></svg>