<?xml version="1.0" encoding="UTF-8"?><svg id="Layer_3" xmlns="http://www.w3.org/2000/svg" viewBox="0 0 770.23 612"><defs><style>.cls-1,.cls-2,.cls-3,.cls-4,.cls-5,.cls-6,.cls-7,.cls-8,.cls-9,.cls-10,.cls-11,.cls-12,.cls-13,.cls-14,.cls-15,.cls-16,.cls-17,.cls-18,.cls-19,.cls-20{fill:none;}.cls-1,.cls-3,.cls-4,.cls-5,.cls-6,.cls-7,.cls-21,.cls-8,.cls-22,.cls-9,.cls-10,.cls-11,.cls-12,.cls-13,.cls-14,.cls-23,.cls-24,.cls-25,.cls-26,.cls-15,.cls-16,.cls-17,.cls-18,.cls-19,.cls-20{stroke:#000;}.cls-1,.cls-3,.cls-4,.cls-5,.cls-6,.cls-7,.cls-21,.cls-8,.cls-9,.cls-10,.cls-11,.cls-12,.cls-13,.cls-14,.cls-23,.cls-24,.cls-25,.cls-26,.cls-15,.cls-16,.cls-17,.cls-18,.cls-19,.cls-20{stroke-linecap:round;}.cls-1,.cls-3,.cls-4,.cls-6,.cls-7,.cls-21,.cls-8,.cls-22,.cls-9,.cls-10,.cls-12,.cls-13,.cls-14,.cls-23,.cls-24,.cls-25,.cls-26,.cls-15,.cls-16,.cls-17,.cls-18,.cls-19{stroke-linejoin:round;}.cls-1,.cls-7,.cls-21{stroke-dasharray:0 0 .54 1.09;}.cls-1,.cls-22,.cls-24,.cls-25,.cls-26,.cls-17{stroke-width:.43px;}.cls-2,.cls-27,.cls-28{stroke-width:0px;}.cls-3{stroke-dasharray:0 0 .55 1.09;}.cls-3,.cls-4,.cls-5,.cls-6,.cls-7,.cls-21,.cls-8,.cls-9,.cls-10,.cls-11,.cls-12,.cls-13,.cls-14,.cls-23,.cls-15,.cls-16,.cls-18,.cls-19,.cls-20{stroke-width:.22px;}.cls-4{stroke-dasharray:0 0 .54 1.07;}.cls-5,.cls-11,.cls-20{stroke-miterlimit:10;}.cls-6{stroke-dasharray:0 0 .33 .65;}.cls-21,.cls-22,.cls-23,.cls-25,.cls-28{fill:#fff;}.cls-8{stroke-dasharray:0 0 .56 1.12;}.cls-9{stroke-dasharray:0 0 .55 1.11;}.cls-10{stroke-dasharray:0 0 .53 1.05;}.cls-11,.cls-16{stroke-dasharray:0 0 .53 1.05;}.cls-12{stroke-dasharray:0 0 .54 1.09;}.cls-13{stroke-dasharray:0 0 .46 .93;}.cls-14{stroke-dasharray:0 0 .56 1.12;}.cls-24{fill:#e8e8e8;}.cls-26{fill:#e5e5e5;}.cls-15{stroke-dasharray:0 0 .54 1.08;}.cls-19{stroke-dasharray:0 0 .55 1.09;}.cls-20{stroke-dasharray:0 0 .33 .65;}</style></defs><path class="cls-26" d="m200.76,304.23c-.11-5.65.54-11.3,2.17-16.73,3.37-11.19,7.82-21.07,13.47-29.65h0c-9.45-10.54-19.88-19.88-31.17-27.91l-5.54-3.91c-13.25-6.52-26.5-6.52-39.86,0l-5.54,3.91c-11.4,8.04-21.72,17.49-30.96,27.91h0c5.54,8.69,10.1,18.46,13.47,29.65,1.63,5.43,2.28,11.08,2.17,16.73l-1.74,71.79h85.26"/><path class="cls-25" d="m179.58,225.92l-7.49-8.8h-24.87l-7.49,8.8c.11-2.39,39.86-2.39,39.86,0Z"/><path class="cls-25" d="m139.82,225.92l-5.54,3.91c-11.4,8.04-21.72,17.49-30.96,27.91h0c5.54,8.69,10.1,18.46,13.47,29.65,1.63,5.43,2.28,11.08,2.17,16.73l-1.74,71.79,39.75,9.12,5.76-19.12-22.92-140Z"/><path class="cls-25" d="m139.61,225.81c-3.58,6.63-7.39,15.42-11.4,25.2l3.91,3.8,15.21-11.84-19.12,14.88,34.43,108.07c-8.04-61.91-19.44-138.27-15.31-148.8l-7.71,8.69"/><path class="cls-25" d="m202.71,287.51c-1.63,5.43-2.28,11.08-2.17,16.73"/><path class="cls-25" d="m216.18,257.85c-5.54,8.69-10.1,18.46-13.47,29.65"/><path class="cls-25" d="m179.58,225.92l5.54,3.91c11.4,8.04,21.72,17.49,30.96,27.91h0c-5.54,8.69-10.1,18.46-13.47,29.65-1.63,5.43-2.28,11.08-2.17,16.73l1.74,71.79-39.21,9.12-6.19-19.12,22.81-140Z"/><polyline class="cls-25" points="183.6 278.17 198.91 276.32 198.91 282.62 179.79 285.44"/><path class="cls-25" d="m202.71,287.51c3.37-11.19,7.82-21.07,13.47-29.65h0c.65.33.98.87,1.09,1.52,4.34,30.85,6.41,59.3,4.78,83.63l-1.09,12.49-2.5,28.57-22.05-3.37,5.76-50.51-1.74-26.07c0-5.54.65-11.19,2.28-16.62"/><line class="cls-17" x1="220.96" y1="355.5" x2="216.83" y2="383.85"/><path class="cls-25" d="m179.79,225.81c3.58,6.63,7.39,15.42,11.4,25.2l-3.91,3.8-15.21-11.84,19.12,14.99-34.32,107.96c8.04-61.91,19.44-138.27,15.31-148.8l7.6,8.69"/><path class="cls-25" d="m116.69,287.51c-3.37-11.19-7.82-21.07-13.47-29.65h0c-.65.33-.98.87-1.09,1.52-4.34,30.85-6.41,59.3-4.78,83.63l1.09,12.49,2.5,28.57,22.05-3.37-5.76-50.51,1.74-26.07c0-5.54-.65-11.19-2.28-16.62"/><line class="cls-17" x1="98.44" y1="355.5" x2="102.57" y2="383.85"/><rect class="cls-25" x="188.92" y="311.84" width="3.37" height="54.52"/><path class="cls-26" d="m277.66,225.92l-5.54,3.91c-11.4,8.04-21.72,17.49-30.96,27.91h0c5.54,8.69,10.1,18.46,13.47,29.65,1.63,5.43,2.28,11.08,2.17,16.73l1.3,71.79,36.71,9.12,5.76-19.12-22.92-140Z"/><path class="cls-26" d="m317.52,225.92l5.54,3.91c11.4,8.04,21.72,17.49,30.96,27.91h0c-5.54,8.69-10.1,18.46-13.47,29.65-1.63,5.43-2.28,11.08-2.17,16.73l-1.41,71.79-36.06,9.12-6.19-19.12,22.81-140Z"/><line class="cls-17" x1="190.55" y1="311.84" x2="190.55" y2="366.47"/><rect class="cls-25" x="127.22" y="311.84" width="3.37" height="54.52"/><line class="cls-17" x1="128.85" y1="311.84" x2="128.85" y2="366.47"/><path class="cls-25" d="m340.76,287.51c3.26-11.19,7.82-21.07,13.47-29.65h0c.54.33.98.87,1.09,1.52,4.34,30.85,6.41,59.3,4.78,83.63l-1.09,12.49-2.5,28.57-22.05-3.37,5.76-50.51-1.74-26.07c0-5.65.65-11.3,2.28-16.62"/><path class="cls-27" d="m159.92,224.18l-.22,118.83c.43,0-.98-120.24.22-118.83h0Z"/><path class="cls-25" d="m254.74,287.51c-3.26-11.19-7.82-21.07-13.47-29.65h0c-.54.33-.98.87-1.09,1.52-4.34,30.85-6.41,59.3-4.78,83.63l1.09,12.49,2.5,28.57,22.05-3.37-5.76-50.51,1.74-26.07c0-5.65-.65-11.3-2.28-16.62"/><path class="cls-25" d="m323.17,229.83l-5.54-3.91c-13.25-6.52-26.5-6.52-39.86,0l-5.54,3.91c-11.4,8.04-21.72,17.49-30.96,27.91h0c4.02,6.3,7.6,13.14,10.43,20.64,1.09,2.93,2.06,5.87,3.04,9.02,1.63,5.43,2.28,11.08,2.17,16.73l.33,71.79c0,1.41,81.35,1.41,81.35,0v-71.79c-.11-5.65.54-11.3,2.17-16.73,3.26-11.19,7.82-21.07,13.47-29.65h0c-9.23-10.43-19.66-19.88-31.06-27.91Z"/><path class="cls-25" d="m317.63,225.92l-7.49-8.8h-24.87l-7.49,8.8c.11-2.39,39.86-2.39,39.86,0Z"/><path class="cls-25" d="m340.76,287.51c-1.63,5.43-2.28,11.08-2.17,16.73"/><path class="cls-25" d="m354.23,257.75c-5.54,8.69-10.1,18.46-13.47,29.65"/><line class="cls-17" x1="297.75" y1="224.18" x2="297.75" y2="377.01"/><circle class="cls-25" cx="216.83" cy="367.56" r="1.52"/><circle class="cls-25" cx="216.4" cy="371.03" r="1.52"/><circle class="cls-25" cx="215.85" cy="374.51" r="1.52"/><circle class="cls-25" cx="215.42" cy="377.98" r="1.52"/><circle class="cls-25" cx="102.57" cy="367.56" r="1.52"/><circle class="cls-25" cx="103" cy="371.03" r="1.52"/><circle class="cls-25" cx="103.55" cy="374.51" r="1.52"/><circle class="cls-25" cx="104.09" cy="377.98" r="1.52"/><circle class="cls-17" cx="160.24" cy="365.93" r="2.28"/><path class="cls-25" d="m251.7,278.49c-7.39,18.36-12.16,44.75-15.31,77.01"/><path class="cls-25" d="m343.8,278.49c7.39,18.36,12.16,44.75,15.31,77.01"/><path class="cls-28" d="m147.1,219.19c8.36-.43,16.84-.43,25.2,0"/><path class="cls-18" d="m147.1,219.19h.22"/><path class="cls-10" d="m148.4,219.08c7.71-.33,15.42-.33,23.14,0"/><path class="cls-18" d="m172.08,219.08h.22"/><path class="cls-28" d="m147.1,221.36c8.36-.43,16.84-.43,25.2,0"/><path class="cls-18" d="m147.1,221.36h.22"/><path class="cls-10" d="m148.4,221.25c7.71-.33,15.42-.33,23.14,0"/><path class="cls-18" d="m172.08,221.25h.22"/><path class="cls-23" d="m147.1,220.27c8.36-.43,16.84-.43,25.2,0"/><line class="cls-7" x1="297.75" y1="348.01" x2="291.78" y2="354.2"/><line class="cls-27" x1="117.23" y1="330.19" x2="115.11" y2="314.16"/><polygon class="cls-27" points="117.02 330.22 115.11 314.16 117.45 330.16 117.02 330.22 117.02 330.22"/><line class="cls-27" x1="202.17" y1="330.19" x2="204.29" y2="314.16"/><polygon class="cls-27" points="201.95 330.16 204.29 314.16 202.38 330.22 201.95 330.16 201.95 330.16"/><line class="cls-28" x1="255.28" y1="330.19" x2="254.7" y2="346.22"/><path class="cls-27" d="m255.5,330.2l-.8,16.02.36-16.03c0-.28.45-.27.43.02h0Z"/><line class="cls-28" x1="340.22" y1="330.19" x2="340.8" y2="346.22"/><path class="cls-27" d="m340.44,330.18l.36,16.03-.8-16.02c-.02-.28.43-.3.43-.02h0Z"/><path class="cls-25" d="m422.51,274.5c-1.85-12.16-4.24-22.92-7.17-31.28h0c-.54.33-.98.87-1.09,1.52-6.84,28.13-11.4,56.81-13.79,86.24-1.63,20.42-.54,40.3,2.06,60.5l23.03-4.02-5.54-46.6,3.58-46.16,1.85-18.36-2.93-1.85Z"/><path class="cls-27" d="m417.17,315.23l3.04,25.52c0,.11-.11.22-.22.22s-.22-.11-.22-.22c.11.11-2.61-25.52-2.61-25.52h0Z"/><line class="cls-17" x1="400.03" y1="364.65" x2="403.62" y2="391.15"/><path class="cls-26" d="m482.9,225.29c-12.6-3.8-25.2-3.8-37.8,0l-29.76,17.92c3.04,8.36,5.32,19.12,7.17,31.28.22,1.74.43,3.58.54,5.32l1.41,45.94h79.07l1.41-45.94c.11-1.74.22-3.58.54-5.32,1.85-12.16,4.24-22.92,7.28-31.28l-29.87-17.92Z"/><path class="cls-27" d="m464.22,223.88l-.22,53.87-.22-53.87c0-.33.43-.33.43,0h0Z"/><path class="cls-25" d="m505.5,274.5c1.85-12.16,4.24-22.92,7.28-31.28h0c.54.33.98.87,1.09,1.52,6.84,28.13,11.4,56.81,13.79,86.24,1.63,20.42.54,40.3-2.06,60.5l-23.03-4.02,5.54-46.6-3.58-46.16-1.85-18.36,2.82-1.85Z"/><path class="cls-25" d="m465.53,268.74v57.02h-41.06l-1.41-45.94c-.11-1.74-.22-3.58-.54-5.32-1.85-12.16-4.24-22.92-7.17-31.28l29.76-17.92,20.42,43.45Z"/><path class="cls-25" d="m462.49,268.74v57.02h41.06l1.41-45.94c.11-1.74.22-3.58.54-5.32,1.85-12.16,4.24-22.92,7.28-31.28l-29.87-17.92-20.42,43.45Z"/><path class="cls-27" d="m510.93,315.23l-2.61,25.52c0,.11-.11.22-.22.22s-.22-.11-.22-.22c0,0,3.04-25.52,3.04-25.52h0Z"/><line class="cls-17" x1="528.09" y1="364.65" x2="524.4" y2="391.15"/><polygon class="cls-25" points="424.47 325.76 487.68 325.76 494.64 332.72 488.12 339.23 424.47 339.23 424.47 325.76"/><polygon class="cls-25" points="503.54 325.76 440.44 325.76 433.48 332.72 439.89 339.23 503.54 339.23 503.54 325.76"/><path class="cls-25" d="m565.67,274.61c-1.85-12.16-4.24-22.92-7.28-31.28h0c-.54.33-.98.87-1.09,1.52-6.84,28.13-13.25,56.81-15.64,86.24-1.63,20.42-.54,40.3,2.06,60.5l24.87-4.02-5.54-46.6,3.58-46.16,1.85-18.36-2.82-1.85Z"/><line class="cls-17" x1="503.98" y1="375.29" x2="527" y2="379.31"/><line class="cls-17" x1="424.04" y1="375.29" x2="401.12" y2="379.31"/><path class="cls-25" d="m648.65,274.61c1.85-12.16,4.24-22.92,7.28-31.28h0c.54.33.98.87,1.09,1.52,6.84,28.13,13.25,56.81,15.64,86.24,1.63,20.42.54,40.3-2.06,60.5l-24.87-4.02,5.54-46.6-3.58-46.16-1.85-18.36,2.82-1.85Z"/><path class="cls-25" d="m626.06,225.4c-2.17-3.15-27.91-8.91-37.8,0l-29.76,17.92c3.04,8.36,5.32,19.12,7.28,31.28.22,1.74.43,3.58.54,5.32l1.41,45.94h79.07l1.41-45.94c.11-1.74.22-3.58.54-5.32,1.85-12.16,4.24-22.92,7.28-31.28l-29.98-17.92Z"/><path class="cls-25" d="m626.06,225.4l-6.19-8.69h-25.52l-6.19,8.69c0-.98,9.45-1.41,18.9-1.41s19.01.43,19.01,1.41Z"/><polygon class="cls-26" points="567.62 339.34 646.7 339.34 637.46 330.11 579.03 330.11 567.62 339.34"/><path class="cls-25" d="m567.62,325.87v13.47c0-3.37,79.07-3.37,79.07,0v-13.47c0-3.8-79.07-3.8-79.07,0Z"/><line class="cls-17" x1="647.13" y1="375.4" x2="671.9" y2="379.42"/><line class="cls-17" x1="607.16" y1="256.14" x2="607.16" y2="323.05"/><line class="cls-17" x1="651.91" y1="256.25" x2="562.19" y2="256.25"/><path class="cls-27" d="m579.14,304.69l.22,19.01c0,.11-.11.22-.22.22s-.22-.11-.22-.22l.22-19.01h0Z"/><path class="cls-27" d="m574.68,309.25l.22,14.88c0,.11-.11.22-.22.22s-.22-.11-.22-.22c0,0,.22-14.88.22-14.88h0Z"/><path class="cls-27" d="m635.07,304.69l.22,19.01c0,.11-.11.22-.22.22s-.22-.11-.22-.22c0,.11.22-19.01.22-19.01h0Z"/><path class="cls-27" d="m639.53,309.25l.22,14.88c0,.11-.11.22-.22.22s-.22-.11-.22-.22l.22-14.88h0Z"/><path class="cls-17" d="m651.15,260.27c7.82,9.88,18.03,57.57,21.83,104.38"/><line class="cls-17" x1="567.08" y1="375.4" x2="542.32" y2="379.42"/><path class="cls-17" d="m563.06,260.27c-7.82,9.88-18.03,57.57-21.83,104.38"/><rect class="cls-17" x="472.04" y="274.17" width="29.54" height="3.48"/><line class="cls-17" x1="472.04" y1="275.91" x2="501.59" y2="275.91"/><polygon class="cls-17" points="501.59 290.79 501.59 283.62 472.04 283.62 472.04 290.79 487.68 293.51 501.59 290.79"/><rect class="cls-17" x="426.42" y="274.17" width="29.54" height="3.48"/><line class="cls-17" x1="455.97" y1="275.91" x2="426.42" y2="275.91"/><polygon class="cls-17" points="426.42 290.79 426.42 283.62 455.97 283.62 455.97 290.79 440.44 293.51 426.42 290.79"/><circle class="cls-25" cx="465.53" cy="270.7" r="1.96"/><circle class="cls-25" cx="465.53" cy="332.82" r="1.96"/><circle class="cls-25" cx="465.53" cy="317.29" r="1.96"/><circle class="cls-25" cx="465.53" cy="301.76" r="1.96"/><circle class="cls-25" cx="465.53" cy="286.23" r="1.96"/><circle class="cls-25" cx="437.94" cy="332.82" r="1.96"/><circle class="cls-25" cx="523.09" cy="381.81" r="1.52"/><circle class="cls-25" cx="522.11" cy="387.35" r="1.52"/><circle class="cls-25" cx="404.92" cy="381.81" r="1.52"/><circle class="cls-25" cx="406.01" cy="387.35" r="1.52"/><path class="cls-25" d="m482.9,225.29l-6.19-8.69h-25.52l-6.19,8.69c0-.98,9.45-1.41,18.9-1.41s19.01.43,19.01,1.41Z"/><path class="cls-25" d="m464.77,266.79l-.76.65-.76-.65-21.29-18.03,5.21-5.65-5.76-3.8c.98-3.15,1.96-7.39,2.82-11.95.11-.65.43-1.3.87-1.96l6.19-8.69c-1.96,5.65,3.8,24.33,12.71,48.12.33.54.54,1.19.76,1.96Z"/><path class="cls-25" d="m480.84,243l5.21,5.65-21.29,18.14-.76.65-1.52,1.3c.22-.65.54-1.3.76-1.96.22-.65.54-1.41.76-2.06,8.91-23.79,14.66-42.47,12.71-48.12l6.19,8.69c.43.54.65,1.19.87,1.96.87,4.67,1.85,8.91,2.82,11.95l-5.76,3.8Z"/><line class="cls-2" x1="563.06" y1="340.97" x2="562.19" y2="358.35"/><line class="cls-2" x1="652.61" y1="353.91" x2="651.15" y2="340.97"/><path class="cls-18" d="m450.97,219.1h.22"/><path class="cls-3" d="m452.28,219.1c8.04-.33,15.97-.33,24,0"/><path class="cls-18" d="m476.82,219.1h.22"/><path class="cls-18" d="m450.97,221.28h.22"/><path class="cls-3" d="m452.28,221.28c8.04-.33,15.97-.33,24,0"/><path class="cls-18" d="m476.82,221.28h.22"/><path class="cls-17" d="m450.97,220.19c8.69-.43,17.38-.43,26.18,0"/><line class="cls-17" x1="447.28" y1="243" x2="454.12" y2="235.83"/><line class="cls-17" x1="480.73" y1="243" x2="473.89" y2="235.83"/><line class="cls-17" x1="447.28" y1="243" x2="454.12" y2="235.83"/><line class="cls-17" x1="480.73" y1="243" x2="473.89" y2="235.83"/><polygon class="cls-27" points="563.28 341 561.52 353.56 562.85 340.94 563.28 341 563.28 341"/><polygon class="cls-27" points="651.47 340.94 652.81 353.56 651.04 341 651.47 340.94 651.47 340.94"/><path class="cls-17" d="m511.19,179.63l-6.08-70.38c-.22-2.28-.33-4.45-.33-6.73-.54-28.24.33-52.03,5-64.41l-25.42-16.29c-12.49-4.13-24.87-4.45-36.93,0l-25.42,16.29c4.56,12.38,5.54,36.17,5,64.41,0,2.28-.11,4.45-.33,6.73l-6.08,70.38c14.01,3.04,29.11,4.45,45.29,4.34,16.18.11,31.39-1.19,45.29-4.34Z"/><path class="cls-24" d="m511.19,179.63l-6.08-70.38c-.22-2.28-.33-4.45-.33-6.73-.54-28.24.33-52.03,5-64.41l-25.42-16.29c-12.27-2.82-24.66-2.82-36.93,0l-25.42,16.29c4.56,12.38,5.54,36.17,5,64.41,0,2.28-.11,4.45-.33,6.73l-6.08,70.38c14.01,3.04,29.11,4.45,45.29,4.34,16.18.11,31.39-1.19,45.29-4.34Z"/><path class="cls-27" d="m466.12,15.4l-.22,53-.22-53c0-.22.43-.33.43,0h0Z"/><path class="cls-25" d="m447.44,21.92l-25.42,16.29c4.56,12.38,5.54,36.17,5,64.41,0,2.28-.11,4.45-.33,6.73l-6.08,70.38c18.25,4.02,38.45,5.21,60.39,3.91v-73.21l-20.31-67.34-13.25-21.18Z"/><path class="cls-25" d="m427.02,102.62c.54-28.24-.43-52.03-5-64.41h0c-2.82-.33-3.91,4.56-4.78,7.39-5.1,18.14-8.47,46.7-11.62,76.57-2.17,15.75-1.41,38.78.98,60.39l22.05-3.37-5.76-49.85,4.13-26.72Z"/><path class="cls-27" d="m422.67,129.36l-3.15-31.17,3.58,31.17c0,.22-.43.22-.43,0h0Z"/><path class="cls-25" d="m484.37,21.92l25.42,16.29c-4.56,12.38-5.54,36.17-5,64.41,0,2.28.22,4.45.33,6.73l6.08,70.38c-18.25,4.02-38.45,5.21-60.39,3.91v-73.21l20.31-67.34,13.25-21.18Z"/><path class="cls-25" d="m484.37,21.92l-6.19-6.52h-24.55l-6.19,6.52c0-.87,36.93-.87,36.93,0Z"/><path class="cls-25" d="m504.79,102.62c-.54-28.24.33-52.03,5-64.41h0c3.04-.33,3.91,4.56,4.67,7.39,5.1,18.14,8.47,46.7,11.62,76.57,2.17,15.75,1.41,38.78-.98,60.39l-22.05-3.37,5.76-49.85-4.02-26.72Z"/><path class="cls-27" d="m508.59,129.23l3.58-31.17-3.15,31.17c0,.33-.43.33-.43,0h0Z"/><line class="cls-17" x1="465.9" y1="15.4" x2="465.9" y2="21.27"/><path class="cls-25" d="m470.68,67.65c-1.52,3.48-3.15,7.06-4.78,10.75-1.63-3.58-3.26-7.17-4.78-10.75-7.6-17.6-13.25-33.45-13.69-45.73l6.19-6.52c1.41,11.4,5.97,25.52,12.27,40.95,1.52,3.69,3.15,7.39,4.78,11.3Z"/><path class="cls-25" d="m484.37,21.92c-.43,12.16-6.08,28.13-13.69,45.73-1.52,3.48-3.15,7.06-4.78,10.75-4.78,10.43-9.99,21.18-15.1,32.04v-20.42c3.58-7.6,7.06-15.1,10.32-22.37,1.63-3.8,3.26-7.6,4.78-11.3,6.3-15.42,10.86-29.43,12.27-40.95l6.19,6.52Z"/><line class="cls-17" x1="489.15" y1="89.04" x2="489.15" y2="132.16"/><polyline class="cls-25" points="486.32 134.34 507.28 134.34 507.09 132.16 486.32 132.16 486.32 134.34 486.32 136.51 507.38 136.51"/><line class="cls-17" x1="442.66" y1="89.04" x2="442.66" y2="132.16"/><polyline class="cls-25" points="445.48 134.34 424.52 134.34 424.74 132.16 445.48 132.16 445.48 134.34 445.48 136.51 424.4 136.51"/><polygon class="cls-25" points="499.36 62.87 479.15 66.02 479.15 72.21 499.36 69.49 499.36 62.87"/><circle class="cls-25" cx="522.71" cy="168.12" r="1.41"/><circle class="cls-25" cx="522.27" cy="171.48" r="1.41"/><circle class="cls-25" cx="521.73" cy="174.85" r="1.41"/><circle class="cls-25" cx="521.3" cy="178.22" r="1.41"/><circle class="cls-25" cx="409.1" cy="168.12" r="1.41"/><circle class="cls-25" cx="409.53" cy="171.48" r="1.41"/><circle class="cls-25" cx="410.07" cy="174.85" r="1.41"/><circle class="cls-25" cx="410.51" cy="178.22" r="1.41"/><circle class="cls-17" cx="454.61" cy="111.53" r="2.39"/><circle class="cls-17" cx="478.18" cy="111.53" r="2.39"/><path class="cls-25" d="m563.76,103.06c.54-28.24-.33-52.03-5-64.41h0c-2.93-.22-3.91,4.56-4.67,7.39-5.1,18.14-8.47,46.7-11.62,76.57-2.17,15.75-1.41,38.78.98,60.39l22.05-3.37-5.76-49.85,4.02-26.72Z"/><circle class="cls-17" cx="478.18" cy="139.33" r="2.39"/><circle class="cls-17" cx="454.61" cy="139.33" r="2.39"/><path class="cls-25" d="m641.53,103.06c-.54-28.24.33-52.03,5-64.41h0c3.04-.22,3.91,4.56,4.67,7.39,5.1,18.14,8.47,46.7,11.62,76.57,2.17,15.75,1.41,38.78-.98,60.39l-22.05-3.37,5.76-49.85-4.02-26.72Z"/><path class="cls-25" d="m647.94,180.06l-6.08-70.38c-.22-2.28-.33-4.45-.33-6.73-.54-28.24.33-52.03,5-64.41l-25.42-16.29c-12.49-4.13-24.87-4.45-36.93,0l-25.42,16.29c4.56,12.38,5.54,36.17,5,64.41,0,2.28-.22,4.45-.33,6.73l-6.08,70.38c13.9,3.04,29.11,4.45,45.29,4.34,16.18.11,31.39-1.3,45.29-4.34Z"/><path class="cls-25" d="m621.11,22.25l-6.19-6.52h-24.55l-6.19,6.52c0-.76,36.93-.76,36.93,0Z"/><polyline class="cls-25" points="602.65 15.84 602.65 22.03 602.65 184.41"/><path class="cls-17" d="m563.44,69.38c3.91,28.78,5.76,63.54,2.82,112.09"/><path class="cls-17" d="m641.86,69.38c-3.91,28.78-5.76,63.54-2.82,112.09"/><circle class="cls-17" cx="484.37" cy="94.37" r="2.39"/><circle class="cls-17" cx="447.44" cy="94.37" r="2.39"/><line class="cls-17" x1="527.38" y1="149" x2="523.69" y2="182.34"/><line class="cls-17" x1="404.43" y1="149" x2="408.12" y2="182.34"/><path class="cls-25" d="m562.68,59.28c-6.52,10.43-14.12,52.35-21.51,88.85"/><path class="cls-25" d="m642.51,59.28c6.52,10.43,14.12,52.35,21.51,88.85"/><line class="cls-7" x1="602.65" y1="156.39" x2="596.67" y2="162.58"/><line class="cls-2" x1="559.75" y1="129.67" x2="555.84" y2="152.58"/><path class="cls-27" d="m559.96,129.77l-4.02,22.81,3.58-22.92c0-.33.43-.22.43.11h0Z"/><line class="cls-2" x1="645.55" y1="129.67" x2="649.46" y2="152.58"/><path class="cls-27" d="m645.77,129.67l3.58,22.92-4.02-22.81c0-.33.43-.43.43-.11h0Z"/><path class="cls-17" d="m265,60.3c-6.52,10.43-14.12,52.35-21.51,88.85"/><path class="cls-25" d="m128.8,105.7c.54-28.24-.43-52.03-5-64.41h0c-2.82-.33-3.91,4.56-4.78,7.39-5.1,18.14-8.47,46.7-11.62,76.57-2.17,15.75-1.41,38.78.98,60.39l22.05-3.37-5.76-49.85,4.13-26.72Z"/><path class="cls-27" d="m124.57,132.42h0l-3.15-31.17"/><path class="cls-25" d="m186.15,24.89l25.42,16.29c-4.56,12.38-5.54,36.17-5,64.41,0,2.28.11,4.45.33,6.73l6.08,70.38c-18.25,4.02-38.45,5.21-60.39,3.91v-77.66"/><line class="cls-17" x1="191.04" y1="92.13" x2="191.04" y2="135.25"/><path class="cls-25" d="m206.57,105.7c-.54-28.24.43-52.03,5-64.41h0c3.04-.33,3.91,4.56,4.78,7.39,5.1,18.14,8.47,46.7,11.62,76.57,2.17,15.75,1.41,38.78-.98,60.39l-22.05-3.37,5.76-49.85-4.13-26.72Z"/><polyline class="cls-25" points="188.11 135.25 188.11 137.42 188.11 139.59 209.29 139.59"/><line class="cls-17" x1="144.44" y1="92.13" x2="144.44" y2="135.25"/><polygon class="cls-25" points="201.25 65.95 180.94 69.1 180.94 75.29 201.25 72.58 201.25 65.95"/><circle class="cls-25" cx="224.49" cy="171.2" r="1.41"/><circle class="cls-25" cx="224.06" cy="174.57" r="1.41"/><circle class="cls-25" cx="223.62" cy="177.93" r="1.41"/><circle class="cls-25" cx="223.08" cy="181.3" r="1.41"/><circle class="cls-25" cx="110.88" cy="171.2" r="1.41"/><circle class="cls-25" cx="111.42" cy="174.57" r="1.41"/><circle class="cls-25" cx="111.86" cy="177.93" r="1.41"/><circle class="cls-25" cx="112.29" cy="181.3" r="1.41"/><circle class="cls-17" cx="156.5" cy="110.27" r="2.39"/><circle class="cls-17" cx="179.96" cy="110.27" r="2.39"/><circle class="cls-17" cx="179.96" cy="138.07" r="2.39"/><circle class="cls-17" cx="156.5" cy="138.07" r="2.39"/><circle class="cls-17" cx="186.15" cy="93.1" r="2.39"/><circle class="cls-17" cx="149.22" cy="93.1" r="2.39"/><line class="cls-17" x1="229.16" y1="152.08" x2="225.47" y2="185.43"/><line class="cls-17" x1="106.21" y1="152.08" x2="109.9" y2="185.43"/><path class="cls-25" d="m154.54,17.51h26.39l8.47,9.56c0-1.63-43.34-1.63-43.34,0l8.47-9.56Z"/><path class="cls-25" d="m172.57,83.11c-1.63,2.17-3.26,4.45-4.89,6.63h0c-1.63-2.28-3.26-4.45-4.89-6.63-11.51-16.18-20.31-31.5-22.7-43.88l11.95,1.19-8.69-2.28c-.11-3.48.87-6.52,2.61-11.08l8.47-9.56c-.11,3.8.43,8.58,1.63,14.12,2.06,10.32,6.19,23.46,11.62,38.34h0c1.52,4.24,3.26,8.58,4.89,13.14Z"/><path class="cls-25" d="m146.07,27.07l8.47-9.56"/><path class="cls-25" d="m146.07,27.07l8.47-9.56"/><path class="cls-25" d="m180.94,17.51l8.47,9.56"/><path class="cls-25" d="m146.07,27.07l8.47-9.56"/><path class="cls-25" d="m180.94,17.51l8.47,9.56"/><path class="cls-25" d="m146.07,27.07l8.47-9.56"/><path class="cls-25" d="m180.94,17.51l8.47,9.56"/><path class="cls-25" d="m172.57,83.11c-1.63,2.17-3.26,4.45-4.89,6.63h0c-1.63-2.28-3.26-4.45-4.89-6.63-11.51-16.18-20.31-31.5-22.7-43.88l11.95,1.19-8.69-2.28c-.11-3.48.87-6.52,2.61-11.08l8.47-9.56c-.11,3.8.43,8.58,1.63,14.12,2.06,10.32,6.19,23.46,11.62,38.34h0c1.52,4.24,3.26,8.58,4.89,13.14Z"/><path class="cls-25" d="m152.15,40.43l4.02-8.8-4.02,8.8Z"/><path class="cls-25" d="m180.94,17.51l8.47,9.56"/><path class="cls-25" d="m180.94,17.51l8.47,9.56"/><path class="cls-25" d="m180.94,17.51l8.47,9.56"/><path class="cls-25" d="m180.94,17.51l8.47,9.56"/><path class="cls-25" d="m195.27,39.23c-2.39,12.38-11.08,27.7-22.7,43.88-1.63,2.17-3.26,4.45-4.89,6.63h0c-4.78,6.3-9.88,12.82-15.1,19.22,3.58-8.91,7.06-17.6,10.21-25.85,1.74-4.56,3.37-8.91,4.89-13.14h0c5.32-14.88,9.45-28.02,11.62-38.34,1.19-5.54,1.74-10.32,1.63-14.12l8.47,9.56c1.74,4.56,2.72,7.71,2.61,11.08l-8.69,2.28,11.95-1.19Z"/><path class="cls-25" d="m183.33,40.43l-4.02-8.8,4.02,8.8Z"/><path class="cls-21" d="m154.65,22.83c0-.54,26.18-.54,26.18,0"/><path class="cls-21" d="m154.65,20.66c0-.54,26.18-.54,26.18,0"/><path class="cls-25" d="m154.65,21.74c0-.54,26.18-.54,26.18,0"/><path class="cls-25" d="m128.8,105.7c.54-28.24-.43-52.03-5-64.41h0c-2.82-.33-3.91,4.56-4.78,7.39-5.1,18.14-8.47,46.7-11.62,76.57-2.17,15.75-1.41,38.78.98,60.39l22.05-3.37-5.76-49.85,4.13-26.72Z"/><path class="cls-27" d="m124.57,132.42h0l-3.15-31.17"/><path class="cls-25" d="m186.15,24.89l25.42,16.29c-4.56,12.38-5.54,36.17-5,64.41,0,2.28.11,4.45.33,6.73l6.08,70.38c-18.25,4.02-38.45,5.21-60.39,3.91v-77.66"/><line class="cls-17" x1="191.04" y1="92.13" x2="191.04" y2="135.25"/><path class="cls-25" d="m206.57,105.7c-.54-28.24.43-52.03,5-64.41h0c3.04-.33,3.91,4.56,4.78,7.39,5.1,18.14,8.47,46.7,11.62,76.57,2.17,15.75,1.41,38.78-.98,60.39l-22.05-3.37,5.76-49.85-4.13-26.72Z"/><polyline class="cls-25" points="188.11 135.25 188.11 137.42 188.11 139.59 209.29 139.59"/><line class="cls-17" x1="144.44" y1="92.13" x2="144.44" y2="135.25"/><polygon class="cls-25" points="201.25 65.95 180.94 69.1 180.94 75.29 201.25 72.58 201.25 65.95"/><circle class="cls-25" cx="224.49" cy="171.2" r="1.41"/><circle class="cls-25" cx="224.06" cy="174.57" r="1.41"/><circle class="cls-25" cx="223.62" cy="177.93" r="1.41"/><circle class="cls-25" cx="223.08" cy="181.3" r="1.41"/><circle class="cls-25" cx="110.88" cy="171.2" r="1.41"/><circle class="cls-25" cx="111.42" cy="174.57" r="1.41"/><circle class="cls-25" cx="111.86" cy="177.93" r="1.41"/><circle class="cls-25" cx="112.29" cy="181.3" r="1.41"/><circle class="cls-17" cx="156.5" cy="110.27" r="2.39"/><circle class="cls-17" cx="179.96" cy="110.27" r="2.39"/><circle class="cls-17" cx="179.96" cy="138.07" r="2.39"/><circle class="cls-17" cx="156.5" cy="138.07" r="2.39"/><circle class="cls-17" cx="186.15" cy="93.1" r="2.39"/><circle class="cls-17" cx="149.22" cy="93.1" r="2.39"/><line class="cls-17" x1="229.16" y1="152.08" x2="225.47" y2="185.43"/><line class="cls-17" x1="106.21" y1="152.08" x2="109.9" y2="185.43"/><path class="cls-25" d="m154.54,17.51h26.39l8.47,9.56c0-1.63-43.34-1.63-43.34,0l8.47-9.56Z"/><path class="cls-25" d="m172.57,83.11c-1.63,2.17-3.26,4.45-4.89,6.63h0c-1.63-2.28-3.26-4.45-4.89-6.63-11.51-16.18-20.31-31.5-22.7-43.88l11.95,1.19-8.69-2.28c-.11-3.48.87-6.52,2.61-11.08l8.47-9.56c-.11,3.8.43,8.58,1.63,14.12,2.06,10.32,6.19,23.46,11.62,38.34h0c1.52,4.24,3.26,8.58,4.89,13.14Z"/><path class="cls-25" d="m146.07,27.07l8.47-9.56"/><path class="cls-25" d="m146.07,27.07l8.47-9.56"/><path class="cls-25" d="m180.94,17.51l8.47,9.56"/><path class="cls-25" d="m146.07,27.07l8.47-9.56"/><path class="cls-25" d="m180.94,17.51l8.47,9.56"/><path class="cls-25" d="m146.07,27.07l8.47-9.56"/><path class="cls-25" d="m180.94,17.51l8.47,9.56"/><path class="cls-25" d="m172.57,83.11c-1.63,2.17-3.26,4.45-4.89,6.63h0c-1.63-2.28-3.26-4.45-4.89-6.63-11.51-16.18-20.31-31.5-22.7-43.88l11.95,1.19-8.69-2.28c-.11-3.48.87-6.52,2.61-11.08l8.47-9.56c-.11,3.8.43,8.58,1.63,14.12,2.06,10.32,6.19,23.46,11.62,38.34h0c1.52,4.24,3.26,8.58,4.89,13.14Z"/><path class="cls-25" d="m152.15,40.43l4.02-8.8-4.02,8.8Z"/><path class="cls-25" d="m180.94,17.51l8.47,9.56"/><path class="cls-25" d="m180.94,17.51l8.47,9.56"/><path class="cls-25" d="m180.94,17.51l8.47,9.56"/><path class="cls-25" d="m180.94,17.51l8.47,9.56"/><path class="cls-25" d="m195.27,39.23c-2.39,12.38-11.08,27.7-22.7,43.88-1.63,2.17-3.26,4.45-4.89,6.63h0c-4.78,6.3-9.88,12.82-15.1,19.22,3.58-8.91,7.06-17.6,10.21-25.85,1.74-4.56,3.37-8.91,4.89-13.14h0c5.32-14.88,9.45-28.02,11.62-38.34,1.19-5.54,1.74-10.32,1.63-14.12l8.47,9.56c1.74,4.56,2.72,7.71,2.61,11.08l-8.69,2.28,11.95-1.19Z"/><path class="cls-25" d="m183.33,40.43l-4.02-8.8,4.02,8.8Z"/><path class="cls-21" d="m154.65,22.83c0-.54,26.18-.54,26.18,0"/><path class="cls-21" d="m154.65,20.66c0-.54,26.18-.54,26.18,0"/><path class="cls-25" d="m154.65,21.74c0-.54,26.18-.54,26.18,0"/><path class="cls-25" d="m128.8,105.7c.54-28.24-.43-52.03-5-64.41h0c-2.82-.33-3.91,4.56-4.78,7.39-5.1,18.14-8.47,46.7-11.62,76.57-2.17,15.75-1.41,38.78.98,60.39l22.05-3.37-5.76-49.85,4.13-26.72Z"/><path class="cls-25" d="m186.15,24.89l25.42,16.29c-4.56,12.38-5.54,36.17-5,64.41,0,2.28.11,4.45.33,6.73l6.08,70.38c-18.25,4.02-38.45,5.21-60.39,3.91v-77.66"/><line class="cls-17" x1="191.04" y1="92.13" x2="191.04" y2="135.25"/><path class="cls-25" d="m206.57,105.7c-.54-28.24.43-52.03,5-64.41h0c3.04-.33,3.91,4.56,4.78,7.39,5.1,18.14,8.47,46.7,11.62,76.57,2.17,15.75,1.41,38.78-.98,60.39l-22.05-3.37,5.76-49.85-4.13-26.72Z"/><line class="cls-17" x1="144.44" y1="92.13" x2="144.44" y2="135.25"/><polyline class="cls-25" points="147.27 137.42 126.3 137.42 126.52 135.25 147.27 135.25 147.27 137.42 147.27 139.59"/><polygon class="cls-25" points="201.25 65.95 180.94 69.1 180.94 75.29 201.25 72.58 201.25 65.95"/><circle class="cls-25" cx="224.49" cy="171.2" r="1.41"/><circle class="cls-25" cx="224.06" cy="174.57" r="1.41"/><circle class="cls-25" cx="223.62" cy="177.93" r="1.41"/><circle class="cls-25" cx="223.08" cy="181.3" r="1.41"/><circle class="cls-25" cx="110.88" cy="171.2" r="1.41"/><circle class="cls-25" cx="111.42" cy="174.57" r="1.41"/><circle class="cls-25" cx="111.86" cy="177.93" r="1.41"/><circle class="cls-25" cx="112.29" cy="181.3" r="1.41"/><circle class="cls-17" cx="156.5" cy="110.27" r="2.39"/><circle class="cls-17" cx="179.96" cy="110.27" r="2.39"/><circle class="cls-17" cx="179.96" cy="138.07" r="2.39"/><circle class="cls-17" cx="156.5" cy="138.07" r="2.39"/><circle class="cls-17" cx="186.15" cy="93.1" r="2.39"/><circle class="cls-17" cx="149.22" cy="93.1" r="2.39"/><line class="cls-17" x1="229.16" y1="152.08" x2="225.47" y2="185.43"/><line class="cls-17" x1="106.21" y1="152.08" x2="109.9" y2="185.43"/><path class="cls-25" d="m154.54,17.51h26.39l8.47,9.56c0-1.63-43.34-1.63-43.34,0l8.47-9.56Z"/><path class="cls-25" d="m172.57,83.11c-1.63,2.17-3.26,4.45-4.89,6.63h0c-1.63-2.28-3.26-4.45-4.89-6.63-11.51-16.18-20.31-31.5-22.7-43.88l11.95,1.19-8.69-2.28c-.11-3.48.87-6.52,2.61-11.08l8.47-9.56c-.11,3.8.43,8.58,1.63,14.12,2.06,10.32,6.19,23.46,11.62,38.34h0c1.52,4.24,3.26,8.58,4.89,13.14Z"/><path class="cls-25" d="m146.07,27.07l8.47-9.56"/><path class="cls-25" d="m146.07,27.07l8.47-9.56"/><path class="cls-25" d="m180.94,17.51l8.47,9.56"/><path class="cls-25" d="m146.07,27.07l8.47-9.56"/><path class="cls-25" d="m180.94,17.51l8.47,9.56"/><path class="cls-25" d="m146.07,27.07l8.47-9.56"/><path class="cls-25" d="m180.94,17.51l8.47,9.56"/><path class="cls-25" d="m172.57,83.11c-1.63,2.17-3.26,4.45-4.89,6.63h0c-1.63-2.28-3.26-4.45-4.89-6.63-11.51-16.18-20.31-31.5-22.7-43.88l11.95,1.19-8.69-2.28c-.11-3.48.87-6.52,2.61-11.08l8.47-9.56c-.11,3.8.43,8.58,1.63,14.12,2.06,10.32,6.19,23.46,11.62,38.34h0c1.52,4.24,3.26,8.58,4.89,13.14Z"/><path class="cls-25" d="m152.15,40.43l4.02-8.8-4.02,8.8Z"/><path class="cls-25" d="m180.94,17.51l8.47,9.56"/><path class="cls-25" d="m180.94,17.51l8.47,9.56"/><path class="cls-25" d="m180.94,17.51l8.47,9.56"/><path class="cls-25" d="m180.94,17.51l8.47,9.56"/><path class="cls-25" d="m195.27,39.23c-2.39,12.38-11.08,27.7-22.7,43.88-1.63,2.17-3.26,4.45-4.89,6.63h0c-4.78,6.3-9.88,12.82-15.1,19.22,3.58-8.91,7.06-17.6,10.21-25.85,1.74-4.56,3.37-8.91,4.89-13.14h0c5.32-14.88,9.45-28.02,11.62-38.34,1.19-5.54,1.74-10.32,1.63-14.12l8.47,9.56c1.74,4.56,2.72,7.71,2.61,11.08l-8.69,2.28,11.95-1.19Z"/><path class="cls-25" d="m183.33,40.43l-4.02-8.8,4.02,8.8Z"/><path class="cls-21" d="m154.65,22.83c0-.54,26.18-.54,26.18,0"/><path class="cls-21" d="m154.65,20.66c0-.54,26.18-.54,26.18,0"/><path class="cls-25" d="m154.65,21.74c0-.54,26.18-.54,26.18,0"/><path class="cls-25" d="m149.22,24.89l-25.42,16.29c4.56,12.38,5.54,36.17,5,64.41,0,2.28-.11,4.45-.33,6.73l-6.08,70.38c18.25,4.02,38.45,5.21,60.39,3.91v-73.21"/><polyline class="cls-17" points="126.3 137.42 126.52 135.25 147.27 135.25 147.27 137.42 147.27 139.59"/><path class="cls-25" d="m128.8,105.7c.54-28.24-.43-52.03-5-64.41h0c-2.82-.33-3.91,4.56-4.78,7.39-5.1,18.14-8.47,46.7-11.62,76.57-2.17,15.75-1.41,38.78.98,60.39l22.05-3.37-5.76-49.85,4.13-26.72Z"/><path class="cls-25" d="m186.15,24.89l25.42,16.29c-4.56,12.38-5.54,36.17-5,64.41,0,2.28.11,4.45.33,6.73l6.08,70.38c-18.25,4.02-38.45,5.21-60.39,3.91v-77.66"/><line class="cls-17" x1="191.04" y1="92.13" x2="191.04" y2="135.25"/><path class="cls-25" d="m206.57,105.7c-.54-28.24.43-52.03,5-64.41h0c3.04-.33,3.91,4.56,4.78,7.39,5.1,18.14,8.47,46.7,11.62,76.57,2.17,15.75,1.41,38.78-.98,60.39l-22.05-3.37,5.76-49.85-4.13-26.72Z"/><line class="cls-17" x1="144.44" y1="92.13" x2="144.44" y2="135.25"/><polygon class="cls-25" points="201.25 65.95 180.94 69.1 180.94 75.29 201.25 72.58 201.25 65.95"/><path class="cls-27" d="m167.9,24.35l-.22,45.62-.22-45.62c0-.33.43-.33.43,0h0Z"/><circle class="cls-25" cx="224.49" cy="171.2" r="1.41"/><circle class="cls-25" cx="224.06" cy="174.57" r="1.41"/><circle class="cls-25" cx="223.62" cy="177.93" r="1.41"/><circle class="cls-25" cx="223.08" cy="181.3" r="1.41"/><circle class="cls-25" cx="110.88" cy="171.2" r="1.41"/><circle class="cls-25" cx="111.42" cy="174.57" r="1.41"/><circle class="cls-25" cx="111.86" cy="177.93" r="1.41"/><circle class="cls-25" cx="112.29" cy="181.3" r="1.41"/><circle class="cls-17" cx="156.5" cy="110.27" r="2.39"/><circle class="cls-17" cx="179.96" cy="110.27" r="2.39"/><circle class="cls-17" cx="179.96" cy="138.07" r="2.39"/><circle class="cls-17" cx="156.5" cy="138.07" r="2.39"/><circle class="cls-17" cx="186.15" cy="93.1" r="2.39"/><circle class="cls-17" cx="149.22" cy="93.1" r="2.39"/><line class="cls-17" x1="229.16" y1="152.08" x2="225.47" y2="185.43"/><line class="cls-17" x1="106.21" y1="152.08" x2="109.9" y2="185.43"/><path class="cls-25" d="m154.54,17.51h26.39l8.47,9.56c0-1.63-43.34-1.63-43.34,0l8.47-9.56Z"/><path class="cls-25" d="m146.07,27.07l8.47-9.56"/><path class="cls-25" d="m146.07,27.07l8.47-9.56"/><path class="cls-25" d="m180.94,17.51l8.47,9.56"/><path class="cls-25" d="m146.07,27.07l8.47-9.56"/><path class="cls-25" d="m180.94,17.51l8.47,9.56"/><path class="cls-25" d="m146.07,27.07l8.47-9.56"/><path class="cls-25" d="m180.94,17.51l8.47,9.56"/><path class="cls-17" d="m154.54,17.51l-8.47,9.56"/><path class="cls-17" d="m154.54,17.51l-8.47,9.56"/><path class="cls-17" d="m154.54,17.51l-8.47,9.56"/><path class="cls-25" d="m195.17,39.77c-2.5,12.27-11.19,27.37-22.59,43.34-1.63,2.17-3.26,4.45-4.89,6.63h0c-1.63-2.28-3.26-4.45-4.89-6.63,1.3-3.37,2.5-6.73,3.69-9.88.43-1.09.76-2.17,1.19-3.15h0c5.32-14.88,9.45-28.02,11.62-38.34,1.19-5.54,1.74-10.32,1.63-14.12l8.47,9.56-6.08,13.25,11.4-1.09c.33-.11.54.11.43.43Z"/><line class="cls-17" x1="183.33" y1="40.43" x2="179.31" y2="31.63"/><path class="cls-17" d="m154.54,17.51l-8.47,9.56"/><path class="cls-25" d="m172.57,83.11c-1.63,2.17-3.26,4.45-4.89,6.63h0c-1.63-2.28-3.26-4.45-4.89-6.63-11.4-15.97-20.09-31.17-22.59-43.34,0-.22.11-.43.43-.43l11.4,1.09-7.71-1.96c-.43-.11,1.19-11.4,1.63-11.4l8.47-9.56c-.11,3.8.43,8.58,1.63,14.12,2.06,10.32,6.19,23.46,11.62,38.34h0c1.52,4.24,3.26,8.58,4.89,13.14Z"/><path class="cls-25" d="m152.15,40.43l4.02-8.8-4.02,8.8Z"/><path class="cls-17" d="m180.94,17.51l8.47,9.56"/><path class="cls-17" d="m180.94,17.51l8.47,9.56"/><path class="cls-17" d="m180.94,17.51l8.47,9.56"/><path class="cls-25" d="m154.54,17.51c-.11,3.8.43,8.58,1.63,14.12,2.06,10.32,6.19,23.46,11.62,38.34h0c1.52,4.24,3.15,8.58,4.89,13.14-1.63,2.17-3.26,4.45-4.89,6.63h0c-1.63-2.28-3.26-4.45-4.89-6.63-11.4-15.97-20.09-31.17-22.59-43.34,0-.22.11-.43.43-.43l11.4,1.09"/><line class="cls-17" x1="152.15" y1="40.43" x2="156.06" y2="31.63"/><path class="cls-17" d="m180.94,17.51l8.47,9.56"/><path class="cls-25" d="m195.17,39.77c-2.5,12.27-11.19,27.37-22.59,43.34-1.63,2.17-3.26,4.45-4.89,6.63h0c-4.78,6.3-9.88,12.82-15.1,19.12,3.58-8.91,7.06-17.6,10.21-25.85,1.3-3.37,2.5-6.73,3.69-9.88.43-1.09.76-2.17,1.19-3.15h0c5.32-14.88,9.45-28.02,11.62-38.34,1.19-5.54,1.74-10.32,1.63-14.12l8.47,9.56c.43-.11,2.06,11.3,1.63,11.4l-7.71,1.96,11.4-1.09c.33-.11.54.11.43.43Z"/><path class="cls-25" d="m183.33,40.43l-4.02-8.8,4.02,8.8Z"/><path class="cls-21" d="m154.65,22.83c0-.54,26.18-.54,26.18,0"/><path class="cls-21" d="m154.65,20.66c0-.54,26.18-.54,26.18,0"/><path class="cls-25" d="m154.65,21.74c0-.54,26.18-.54,26.18,0"/><path class="cls-17" d="m350.16,182.17l-6.08-70.38c-.22-2.28-.33-4.45-.33-6.73-.54-28.24.43-52.03,5-64.41l-25.42-16.29c-12.49-4.13-24.87-4.45-36.93,0l-25.42,16.29c4.56,12.38,5.54,36.17,5,64.41,0,2.28-.11,4.45-.33,6.73l-6.08,70.38c14.01,3.04,29.11,4.45,45.29,4.34,16.18.11,31.39-1.3,45.29-4.34Z"/><path class="cls-24" d="m350.16,182.17l-6.08-70.38c-.22-2.28-.33-4.45-.33-6.73-.54-28.24.43-52.03,5-64.41l-25.42-16.29c-6.19-1.41-12.27-2.17-18.46-2.17s-12.27.76-18.46,2.17l-25.42,16.29c4.56,12.38,5.54,36.17,5,64.41,0,2.28-.11,4.45-.33,6.73l-6.08,70.38c14.01,3.04,29.11,4.45,45.29,4.34,16.18.11,31.39-1.3,45.29-4.34Z"/><path class="cls-25" d="m286.4,24.35l-25.42,16.29c4.56,12.38,5.54,36.17,5,64.41,0,2.28-.11,4.45-.33,6.73l-6.08,70.38c18.25,4.02,38.45,5.21,60.39,3.91v-73.21"/><path class="cls-25" d="m265.98,105.05c.54-28.24-.43-52.03-5-64.41h0c-2.82-.33-3.91,4.56-4.78,7.39-5.1,18.14-8.47,46.7-11.62,76.57-2.17,15.75-1.41,38.78.98,60.39l22.05-3.37-5.76-49.85,4.13-26.72Z"/><path class="cls-25" d="m323.33,24.35l25.42,16.29c-4.56,12.38-5.54,36.17-5,64.41,0,2.28.11,4.45.33,6.73l6.08,70.38c-18.25,4.02-38.45,5.21-60.39,3.91v-77.66"/><line class="cls-17" x1="328.11" y1="91.48" x2="328.11" y2="134.6"/><path class="cls-25" d="m343.75,105.05c-.54-28.24.43-52.03,5-64.41h0c3.04-.33,3.91,4.56,4.78,7.39,5.1,18.14,8.47,46.7,11.62,76.57,2.17,15.75,1.41,38.78-.98,60.39l-22.05-3.37,5.76-49.85-4.13-26.72Z"/><line class="cls-17" x1="281.62" y1="91.48" x2="281.62" y2="134.6"/><polygon class="cls-25" points="338.32 65.41 318.01 68.45 318.01 74.64 338.32 72.03 338.32 65.41"/><circle class="cls-17" cx="293.57" cy="109.72" r="2.39" transform="translate(138.24 381.93) rotate(-80.78)"/><circle class="cls-17" cx="317.14" cy="109.72" r="2.39"/><circle class="cls-17" cx="317.14" cy="137.53" r="2.39"/><circle class="cls-17" cx="293.57" cy="137.53" r="2.39" transform="translate(110.79 405.28) rotate(-80.78)"/><circle class="cls-17" cx="323.33" cy="92.56" r="2.39"/><circle class="cls-17" cx="286.4" cy="92.56" r="2.39"/><path class="cls-25" d="m326.48,26.52c0-1.63-43.45-1.63-43.45,0"/><path class="cls-25" d="m293.24,31.09c2.17,10.32,6.19,23.46,11.62,38.34h0c1.52,4.24,3.15,8.58,4.89,13.14-1.63,2.17-3.26,4.45-4.89,6.63h0c-1.63-2.28-3.26-4.45-4.89-6.63-11.51-16.18-20.31-31.5-22.7-43.88l11.95,1.19-8.69-2.28c-.11-3.48.87-6.52,2.61-11.08"/><path class="cls-25" d="m293.24,31.09c2.17,10.32,6.19,23.46,11.62,38.34h0c1.52,4.24,3.15,8.58,4.89,13.14-1.63,2.17-3.26,4.45-4.89,6.63h0c-1.63-2.28-3.26-4.45-4.89-6.63-11.51-16.18-20.31-31.5-22.7-43.88l11.95,1.19-8.69-2.28c-.11-3.48.87-6.52,2.61-11.08"/><path class="cls-25" d="m289.23,39.77l4.02-8.8-4.02,8.8Z"/><path class="cls-25" d="m326.59,26.52c1.63,4.56,2.72,7.71,2.61,11.08l-8.69,2.28,11.95-1.19c-2.39,12.27-11.19,27.7-22.7,43.88-1.63,2.17-3.26,4.45-4.89,6.63h0c-4.78,6.3-9.88,12.82-15.1,19.22,3.58-8.91,7.06-17.6,10.21-25.85,1.74-4.56,3.37-8.91,4.89-13.14h0c5.43-14.88,9.45-28.02,11.62-38.34"/><path class="cls-25" d="m320.51,39.77l-4.02-8.8,4.02,8.8Z"/><path class="cls-21" d="m291.83,22.18c0-.54,26.18-.54,26.18,0"/><path class="cls-21" d="m291.83,20.01c0-.54,26.18-.54,26.18,0"/><path class="cls-25" d="m291.83,21.09c0-.54,26.18-.54,26.18,0"/><path class="cls-17" d="m350.16,182.17l-6.08-70.38c-.22-2.28-.33-4.45-.33-6.73-.54-28.24.43-52.03,5-64.41l-25.42-16.29c-12.49-4.13-24.87-4.45-36.93,0l-25.42,16.29c4.56,12.38,5.54,36.17,5,64.41,0,2.28-.11,4.45-.33,6.73l-6.08,70.38c14.01,3.04,29.11,4.45,45.29,4.34,16.18.11,31.39-1.3,45.29-4.34Z"/><path class="cls-24" d="m350.16,182.17l-6.08-70.38c-.22-2.28-.33-4.45-.33-6.73-.54-28.24.43-52.03,5-64.41l-25.42-16.29c-6.19-1.41-12.27-2.17-18.46-2.17s-12.27.76-18.46,2.17l-25.42,16.29c4.56,12.38,5.54,36.17,5,64.41,0,2.28-.11,4.45-.33,6.73l-6.08,70.38c14.01,3.04,29.11,4.45,45.29,4.34,16.18.11,31.39-1.3,45.29-4.34Z"/><path class="cls-25" d="m286.4,24.35l-25.42,16.29c4.56,12.38,5.54,36.17,5,64.41,0,2.28-.11,4.45-.33,6.73l-6.08,70.38c18.25,4.02,38.45,5.21,60.39,3.91v-73.21"/><path class="cls-25" d="m323.33,24.35l25.42,16.29c-4.56,12.38-5.54,36.17-5,64.41,0,2.28.11,4.45.33,6.73l6.08,70.38c-18.25,4.02-38.45,5.21-60.39,3.91v-77.66"/><line class="cls-17" x1="328.11" y1="91.48" x2="328.11" y2="134.6"/><line class="cls-17" x1="281.62" y1="91.48" x2="281.62" y2="134.6"/><polygon class="cls-25" points="338.32 65.41 318.01 68.45 318.01 74.64 338.32 72.03 338.32 65.41"/><circle class="cls-17" cx="293.57" cy="109.72" r="2.39" transform="translate(138.24 381.93) rotate(-80.78)"/><circle class="cls-17" cx="317.14" cy="109.72" r="2.39"/><circle class="cls-17" cx="317.14" cy="137.53" r="2.39"/><circle class="cls-17" cx="293.57" cy="137.53" r="2.39" transform="translate(110.79 405.28) rotate(-80.78)"/><circle class="cls-17" cx="323.33" cy="92.56" r="2.39"/><circle class="cls-17" cx="286.4" cy="92.56" r="2.39"/><path class="cls-25" d="m326.48,26.52c0-1.63-43.45-1.63-43.45,0"/><path class="cls-25" d="m293.24,31.09c2.17,10.32,6.19,23.46,11.62,38.34h0c1.52,4.24,3.15,8.58,4.89,13.14-1.63,2.17-3.26,4.45-4.89,6.63h0c-1.63-2.28-3.26-4.45-4.89-6.63-11.51-16.18-20.31-31.5-22.7-43.88l11.95,1.19-8.69-2.28c-.11-3.48.87-6.52,2.61-11.08"/><path class="cls-25" d="m293.24,31.09c2.17,10.32,6.19,23.46,11.62,38.34h0c1.52,4.24,3.15,8.58,4.89,13.14-1.63,2.17-3.26,4.45-4.89,6.63h0c-1.63-2.28-3.26-4.45-4.89-6.63-11.51-16.18-20.31-31.5-22.7-43.88l11.95,1.19-8.69-2.28c-.11-3.48.87-6.52,2.61-11.08"/><path class="cls-25" d="m289.23,39.77l4.02-8.8-4.02,8.8Z"/><path class="cls-25" d="m326.59,26.52c1.63,4.56,2.72,7.71,2.61,11.08l-8.69,2.28,11.95-1.19c-2.39,12.27-11.19,27.7-22.7,43.88-1.63,2.17-3.26,4.45-4.89,6.63h0c-4.78,6.3-9.88,12.82-15.1,19.22,3.58-8.91,7.06-17.6,10.21-25.85,1.74-4.56,3.37-8.91,4.89-13.14h0c5.43-14.88,9.45-28.02,11.62-38.34"/><path class="cls-25" d="m320.51,39.77l-4.02-8.8,4.02,8.8Z"/><path class="cls-21" d="m291.83,22.18c0-.54,26.18-.54,26.18,0"/><path class="cls-21" d="m291.83,20.01c0-.54,26.18-.54,26.18,0"/><path class="cls-25" d="m291.83,21.09c0-.54,26.18-.54,26.18,0"/><path class="cls-17" d="m350.16,182.17l-6.08-70.38c-.22-2.28-.33-4.45-.33-6.73-.54-28.24.43-52.03,5-64.41l-25.42-16.29c-12.49-4.13-24.87-4.45-36.93,0l-25.42,16.29c4.56,12.38,5.54,36.17,5,64.41,0,2.28-.11,4.45-.33,6.73l-6.08,70.38c14.01,3.04,29.11,4.45,45.29,4.34,16.18.11,31.39-1.3,45.29-4.34Z"/><path class="cls-24" d="m350.16,182.17l-6.08-70.38c-.22-2.28-.33-4.45-.33-6.73-.54-28.24.43-52.03,5-64.41l-25.42-16.29c-6.19-1.41-12.27-2.17-18.46-2.17s-12.27.76-18.46,2.17l-25.42,16.29c4.56,12.38,5.54,36.17,5,64.41,0,2.28-.11,4.45-.33,6.73l-6.08,70.38c14.01,3.04,29.11,4.45,45.29,4.34,16.18.11,31.39-1.3,45.29-4.34Z"/><path class="cls-25" d="m286.4,24.35l-25.42,16.29c4.56,12.38,5.54,36.17,5,64.41,0,2.28-.11,4.45-.33,6.73l-6.08,70.38c18.25,4.02,38.45,5.21,60.39,3.91v-73.21"/><path class="cls-25" d="m323.33,24.35l25.42,16.29c-4.56,12.38-5.54,36.17-5,64.41,0,2.28.11,4.45.33,6.73l6.08,70.38c-18.25,4.02-38.45,5.21-60.39,3.91v-77.66"/><line class="cls-17" x1="328.11" y1="91.48" x2="328.11" y2="134.6"/><line class="cls-17" x1="281.62" y1="91.48" x2="281.62" y2="134.6"/><polygon class="cls-25" points="338.32 65.41 318.01 68.45 318.01 74.64 338.32 72.03 338.32 65.41"/><circle class="cls-17" cx="293.57" cy="109.72" r="2.39" transform="translate(138.24 381.93) rotate(-80.78)"/><circle class="cls-17" cx="317.14" cy="109.72" r="2.39"/><circle class="cls-17" cx="317.14" cy="137.53" r="2.39"/><circle class="cls-17" cx="293.57" cy="137.53" r="2.39" transform="translate(110.79 405.28) rotate(-80.78)"/><circle class="cls-17" cx="323.33" cy="92.56" r="2.39"/><circle class="cls-17" cx="286.4" cy="92.56" r="2.39"/><path class="cls-25" d="m326.48,26.52c0-1.63-43.45-1.63-43.45,0"/><path class="cls-25" d="m293.24,31.09c2.17,10.32,6.19,23.46,11.62,38.34h0c1.52,4.24,3.15,8.58,4.89,13.14-1.63,2.17-3.26,4.45-4.89,6.63h0c-1.63-2.28-3.26-4.45-4.89-6.63-11.51-16.18-20.31-31.5-22.7-43.88l11.95,1.19-8.69-2.28c-.11-3.48.87-6.52,2.61-11.08"/><path class="cls-25" d="m293.24,31.09c2.17,10.32,6.19,23.46,11.62,38.34h0c1.52,4.24,3.15,8.58,4.89,13.14-1.63,2.17-3.26,4.45-4.89,6.63h0c-1.63-2.28-3.26-4.45-4.89-6.63-11.51-16.18-20.31-31.5-22.7-43.88l11.95,1.19-8.69-2.28c-.11-3.48.87-6.52,2.61-11.08"/><path class="cls-25" d="m289.23,39.77l4.02-8.8-4.02,8.8Z"/><path class="cls-25" d="m326.59,26.52c1.63,4.56,2.72,7.71,2.61,11.08l-8.69,2.28,11.95-1.19c-2.39,12.27-11.19,27.7-22.7,43.88-1.63,2.17-3.26,4.45-4.89,6.63h0c-4.78,6.3-9.88,12.82-15.1,19.22,3.58-8.91,7.06-17.6,10.21-25.85,1.74-4.56,3.37-8.91,4.89-13.14h0c5.43-14.88,9.45-28.02,11.62-38.34"/><path class="cls-25" d="m320.51,39.77l-4.02-8.8,4.02,8.8Z"/><path class="cls-21" d="m291.83,22.18c0-.54,26.18-.54,26.18,0"/><path class="cls-21" d="m291.83,20.01c0-.54,26.18-.54,26.18,0"/><path class="cls-25" d="m291.83,21.09c0-.54,26.18-.54,26.18,0"/><path class="cls-17" d="m350.16,182.17l-6.08-70.38c-.22-2.28-.33-4.45-.33-6.73-.54-28.24.43-52.03,5-64.41l-25.42-16.29c-12.49-4.13-24.87-4.45-36.93,0l-25.42,16.29c4.56,12.38,5.54,36.17,5,64.41,0,2.28-.11,4.45-.33,6.73l-6.08,70.38c14.01,3.04,29.11,4.45,45.29,4.34,16.18.11,31.39-1.3,45.29-4.34Z"/><path class="cls-25" d="m304.87,186.51c16.18.11,31.39-1.3,45.29-4.34"/><line class="cls-17" x1="304.87" y1="186.51" x2="304.87" y2="163.7"/><path class="cls-25" d="m350.16,182.17l-6.08-70.38c-.22-2.28-.33-4.45-.33-6.73-.54-28.24.43-52.03,5-64.41l-25.42-16.29c-6.19-1.41-12.27-2.17-18.46-2.17s-12.27.76-18.46,2.17l-25.42,16.29c4.56,12.38,5.54,36.17,5,64.41,0,2.28-.11,4.45-.33,6.73l-6.08,70.38c14.01,3.04,29.11,4.45,45.29,4.34,16.18.11,31.39-1.3,45.29-4.34Z"/><polyline class="cls-24" points="304.87 186.51 304.87 163.7 304.87 157.41 304.87 23.81"/><path class="cls-22" d="m317.6,17.09l9,9.35c0-1.63-43.97-1.42-43.97.21l8.69-9.56h26.28Z"/><path class="cls-17" d="m264.9,60.95c-6.52,10.43-14.12,52.35-21.51,88.85"/><path class="cls-17" d="m366.34,149.8c-7.39-36.49-14.99-78.42-21.51-88.85"/><path class="cls-17" d="m265.66,71.6c3.91,28.78,5.65,63.32,2.72,111.87"/><path class="cls-17" d="m344.08,71.6c-3.91,28.78-5.65,63.32-2.72,111.87"/><path class="cls-17" d="m147.27,135.25v8.8c0,.54-.43,1.09-1.09,1.09h-19.99"/><path class="cls-17" d="m188.11,135.25v8.8c0,.54.43,1.09,1.09,1.09h19.99"/><line class="cls-17" x1="126.41" y1="136.33" x2="147.27" y2="136.33"/><line class="cls-17" x1="208.88" y1="135.25" x2="188.11" y2="135.25"/><line class="cls-17" x1="208.96" y1="136.33" x2="188.11" y2="136.33"/><line class="cls-7" x1="304.87" y1="157.41" x2="298.89" y2="163.7"/><line class="cls-27" x1="124.67" y1="132.42" x2="122.39" y2="110.93"/><polygon class="cls-27" points="124.46 132.45 122.39 110.93 124.89 132.4 124.46 132.45 124.46 132.45"/><line class="cls-27" x1="210.7" y1="132.42" x2="212.98" y2="110.93"/><polygon class="cls-27" points="210.48 132.4 212.98 110.93 210.91 132.45 210.48 132.4 210.48 132.4"/><line class="cls-28" x1="261.85" y1="131.77" x2="259.57" y2="153.19"/><polygon class="cls-27" points="262.07 131.79 259.57 153.19 261.64 131.75 262.07 131.79 262.07 131.79"/><line class="cls-28" x1="347.88" y1="131.77" x2="350.16" y2="153.19"/><polygon class="cls-27" points="348.09 131.75 350.16 153.19 347.66 131.79 348.09 131.75 348.09 131.75"/><path class="cls-26" d="m578.8,478.63c1.41-12.38,3.8-23.35,7.6-32.69l-25.96-16.62c-14.45-4.89-29.22-5-44.42,0l-25.96,16.62c3.69,9.34,6.19,20.31,7.6,32.69.76,6.84.98,13.69.65,20.53l-3.58,81.9,43.55,2.72,43.55-2.72-3.58-81.9c-.33-6.95-.22-13.79.54-20.53Z"/><line class="cls-17" x1="538.28" y1="579.97" x2="494.62" y2="579.97"/><line class="cls-7" x1="494.62" y1="579.97" x2="538.28" y2="582.68"/><line class="cls-17" x1="538.28" y1="579.97" x2="494.62" y2="579.97"/><line class="cls-7" x1="538.28" y1="582.68" x2="581.84" y2="579.97"/><path class="cls-25" d="m537.52,441.81c-7.28,5.43-13.25,11.08-18.25,17.16l-2.72-29.54,21.72,15.42-.11,136.09h-43.55l3.58-81.9c.33-6.84.11-13.69-.65-20.53-1.41-12.38-3.8-23.35-7.6-32.69l25.96-16.62"/><path class="cls-25" d="m538.93,441.81c7.28,5.43,13.25,11.08,18.25,17.16l2.72-29.54-21.72,15.42.11,136.09h43.55l-3.58-81.9c-.33-6.84-.11-13.69.65-20.53,1.41-12.38,3.8-23.35,7.6-32.69l-25.96-16.62"/><path class="cls-25" d="m586.4,445.83c-3.69,9.34-6.19,20.31-7.6,32.69"/><line class="cls-7" x1="585.97" y1="447.78" x2="559.9" y2="431.16"/><line class="cls-17" x1="585.97" y1="448.76" x2="559.9" y2="432.14"/><line class="cls-7" x1="490.49" y1="447.78" x2="516.56" y2="431.16"/><line class="cls-17" x1="490.49" y1="448.76" x2="516.56" y2="432.14"/><path class="cls-25" d="m578.8,478.63c-.76,6.84-.98,13.69-.65,20.53"/><path class="cls-25" d="m586.4,445.83c-3.69,9.34-6.19,20.31-7.6,32.69"/><line class="cls-17" x1="538.28" y1="441.92" x2="516.02" y2="429.21"/><path class="cls-25" d="m516.02,429.21l9.56-10.32h25.31l9.56,10.32c-14.99-1.74-29.76-1.74-44.42,0Z"/><path class="cls-21" d="m550.67,419.54l8.36,9.02c-6.95-.76-14.01-1.19-20.85-1.19s-13.79.43-20.64,1.19l8.36-9.02"/><line class="cls-1" x1="541.11" y1="445.61" x2="542.19" y2="445.61"/><polygon class="cls-25" points="534.81 446.59 534.81 580.94 541.65 580.94 541.65 446.59 538.83 443.66 534.81 446.59"/><polyline class="cls-1" points="534.26 445.61 534.26 444.2 535.35 444.2 535.35 445.61"/><path class="cls-25" d="m546.32,446.15c-5.43.65-10.75.65-16.08,0l4.13-4.24h3.8l3.8.43,4.34,3.8Z"/><path class="cls-21" d="m541.87,442.89l3.26,2.82c-2.28.22-4.56.33-6.84.33s-4.56-.11-6.73-.43l3.15-3.26"/><line class="cls-7" x1="538.28" y1="579.97" x2="494.62" y2="579.97"/><line class="cls-7" x1="538.28" y1="579.97" x2="581.84" y2="579.97"/><line class="cls-1" x1="538.28" y1="580.94" x2="581.84" y2="580.94"/><line class="cls-17" x1="526.12" y1="422.91" x2="550.34" y2="422.91"/><polyline class="cls-7" points="550.34 422.37 550.34 423.45 526.12 423.45 526.12 422.37"/><circle class="cls-25" cx="538.17" cy="443.44" r="1.41"/><line class="cls-1" x1="526.12" y1="423.02" x2="526.12" y2="422.69"/><line class="cls-1" x1="550.34" y1="422.69" x2="550.34" y2="423.02"/><path class="cls-25" d="m550.88,419c-2.17,6.41-7.06,14.45-12.71,22.92,7.06,5.21,13.58,11.08,19.33,18.36.98-10.97,1.96-21.29,2.82-31.06l-9.45-10.21Z"/><path class="cls-25" d="m525.58,419c2.17,6.41,7.06,14.45,12.71,22.92-7.06,5.21-13.58,11.08-19.33,18.36-.98-10.97-1.96-21.29-2.82-31.06l9.45-10.21Z"/><path class="cls-28" d="m536.87,441.7l-.11.11c-6.63,5-12.27,10.21-16.94,15.86l-2.61-28.02"/><path class="cls-18" d="m536.87,441.7l-.11.11h-.11"/><path class="cls-14" d="m535.68,442.57c-5.97,4.67-11.08,9.34-15.53,14.55"/><path class="cls-18" d="m519.82,457.45c0,.11-.11.11-.22.22v-.22"/><line class="cls-9" x1="519.6" y1="456.25" x2="517.21" y2="430.4"/><line class="cls-18" x1="517.1" y1="429.86" x2="517.1" y2="429.64"/><polyline class="cls-7" points="542.19 580.94 540.67 580.94 540.67 446.59"/><polyline class="cls-7" points="535.78 446.59 535.78 580.94 534.26 580.94"/><path class="cls-7" d="m577.93,478.63c1.41-12.38,3.8-23.35,7.6-32.69"/><path class="cls-21" d="m578.25,499.16c-.33-6.84-1.19-13.79-.43-20.53"/><path class="cls-7" d="m498.53,478.63c-1.41-12.38-3.8-23.35-7.6-32.69"/><path class="cls-21" d="m498.1,499.16c.33-6.84,1.19-13.79.43-20.53"/><path class="cls-25" d="m578.8,478.63c1.41-12.38,3.8-23.35,7.6-32.69"/><path class="cls-25" d="m578.14,499.05c-.33-6.84-.11-13.69.65-20.53"/><path class="cls-25" d="m574.23,575.62l24.22,4.89-2.82,16.29-23.9-4.78,9.45-61.37-3.04-31.61c-.33-6.84-.11-13.69.65-20.53,1.41-12.38,3.8-23.35,7.6-32.69,5.76,28.13,12.27,54.52,13.9,77.12,1.74,17.38,1.63,35.08-1.85,57.46"/><line class="cls-2" x1="595.63" y1="595.83" x2="571.85" y2="591.15"/><line class="cls-18" x1="595.63" y1="595.83" x2="595.31" y2="595.83"/><line class="cls-4" x1="594.33" y1="595.61" x2="572.71" y2="591.26"/><line class="cls-18" x1="572.17" y1="591.15" x2="571.85" y2="591.15"/><line class="cls-2" x1="581.19" y1="530.66" x2="586.4" y2="501"/><path class="cls-27" d="m580.97,530.66l4.55-24.38-4.11,24.49c-.11.22-.54.11-.43-.11h0Z"/><line class="cls-2" x1="574.23" y1="576.6" x2="598.35" y2="581.38"/><line class="cls-18" x1="574.23" y1="576.6" x2="574.56" y2="576.6"/><line class="cls-19" x1="575.54" y1="576.82" x2="597.48" y2="581.27"/><line class="cls-18" x1="598.02" y1="581.38" x2="598.35" y2="581.38"/><line class="cls-2" x1="588.14" y1="578.45" x2="590.2" y2="567.91"/><path class="cls-27" d="m587.92,578.34l2.28-10.54-1.85,10.64c0,.33-.43.22-.43-.11h0Z"/><line class="cls-2" x1="584.88" y1="577.8" x2="586.4" y2="569.97"/><path class="cls-27" d="m584.66,577.69l1.74-7.82-1.3,7.93c-.11.33-.54.22-.43-.11h0Z"/><path class="cls-25" d="m541.65,446.59v134.36-134.36Z"/><path class="cls-25" d="m534.81,580.94v-134.36,134.36Z"/><line class="cls-18" x1="591.94" y1="596.04" x2="592.05" y2="595.83"/><line class="cls-8" x1="592.05" y1="594.63" x2="592.7" y2="580.18"/><line class="cls-18" x1="592.7" y1="579.64" x2="592.7" y2="579.32"/><polyline class="cls-17" points="590.96 578.88 594.33 561.61 595.96 560.74 597.15 562.15 593.79 579.42 593.03 596.26"/><line class="cls-18" x1="596.17" y1="564.44" x2="596.17" y2="564.11"/><line class="cls-6" x1="596.28" y1="563.46" x2="596.5" y2="562.81"/><polyline class="cls-18" points="596.5 562.59 596.61 562.26 596.39 562.05"/><polyline class="cls-18" points="595.96 561.61 595.85 561.39 595.63 561.5"/><polyline class="cls-18" points="595.09 561.83 594.87 561.94 594.76 562.15"/><line class="cls-16" x1="594.55" y1="563.24" x2="591.61" y2="578.23"/><line class="cls-18" x1="591.5" y1="578.77" x2="591.5" y2="578.99"/><line class="cls-2" x1="593.89" y1="564" x2="596.72" y2="564.54"/><line class="cls-18" x1="593.89" y1="564" x2="594.11" y2="564"/><line class="cls-13" x1="595.09" y1="564.22" x2="595.96" y2="564.33"/><line class="cls-18" x1="596.39" y1="564.44" x2="596.72" y2="564.54"/><path class="cls-25" d="m490.06,445.83c3.69,9.34,6.19,20.31,7.6,32.69"/><path class="cls-25" d="m497.66,478.63c.76,6.84.98,13.69.65,20.53"/><path class="cls-25" d="m490.06,445.83c3.69,9.34,6.19,20.31,7.6,32.69"/><path class="cls-25" d="m502.22,575.62l-24.22,4.89,2.82,16.29,23.9-4.78-9.45-61.37,3.04-31.61c.33-6.84.11-13.69-.65-20.53-1.41-12.38-3.8-23.35-7.6-32.69-5.76,28.13-12.27,54.52-13.9,77.12-1.74,17.38-1.63,35.08,1.85,57.46"/><line class="cls-2" x1="480.83" y1="595.83" x2="504.61" y2="591.15"/><line class="cls-18" x1="480.83" y1="595.83" x2="481.15" y2="595.83"/><line class="cls-4" x1="482.13" y1="595.61" x2="503.74" y2="591.26"/><line class="cls-18" x1="504.29" y1="591.15" x2="504.61" y2="591.15"/><line class="cls-2" x1="495.27" y1="530.66" x2="490.06" y2="501"/><path class="cls-27" d="m495.05,530.66l-4.12-24.55,4.56,24.44c.11.33-.33.43-.43.11h0Z"/><line class="cls-2" x1="502.22" y1="576.6" x2="478.11" y2="581.38"/><line class="cls-18" x1="502.22" y1="576.6" x2="501.9" y2="576.6"/><line class="cls-19" x1="500.81" y1="576.82" x2="478.98" y2="581.27"/><line class="cls-18" x1="478.44" y1="581.38" x2="478.11" y2="581.38"/><line class="cls-2" x1="488.32" y1="578.45" x2="486.26" y2="567.91"/><path class="cls-27" d="m488.1,578.45l-1.85-10.64,2.28,10.54c0,.33-.43.43-.43.11h0Z"/><line class="cls-2" x1="491.58" y1="577.8" x2="490.06" y2="569.97"/><path class="cls-27" d="m491.36,577.8l-1.3-7.93,1.74,7.82c.11.33-.33.43-.43.11h0Z"/><line class="cls-18" x1="484.41" y1="596.04" x2="484.41" y2="595.83"/><line class="cls-8" x1="484.41" y1="594.63" x2="483.76" y2="580.18"/><line class="cls-18" x1="483.76" y1="579.64" x2="483.76" y2="579.32"/><polyline class="cls-17" points="485.5 578.88 482.13 561.61 480.5 560.74 479.3 562.15 482.67 579.42 483.43 596.26"/><line class="cls-5" x1="484.95" y1="578.99" x2="484.84" y2="578.77"/><line class="cls-11" x1="484.74" y1="577.69" x2="481.8" y2="562.7"/><polyline class="cls-5" points="481.69 562.15 481.59 561.94 481.37 561.83"/><polyline class="cls-5" points="480.83 561.5 480.61 561.39 480.39 561.61"/><polyline class="cls-5" points="480.07 562.05 479.85 562.26 479.96 562.59"/><line class="cls-20" x1="480.07" y1="563.13" x2="480.17" y2="563.78"/><line class="cls-5" x1="480.28" y1="564.11" x2="480.28" y2="564.44"/><path class="cls-25" d="m713.98,575.3l24.22,4.89-2.82,16.29-23.9-4.78,9.45-61.37-3.04-31.61c-.33-6.84-.11-13.69.65-20.53,1.41-12.38,3.8-23.35,7.6-32.69,5.76,28.13,12.27,54.52,13.9,77.12,1.74,17.38,1.63,35.08-1.85,57.46"/><line class="cls-2" x1="735.26" y1="595.5" x2="711.48" y2="590.72"/><line class="cls-18" x1="735.26" y1="595.5" x2="735.05" y2="595.5"/><line class="cls-15" x1="733.96" y1="595.28" x2="712.24" y2="590.94"/><line class="cls-18" x1="711.7" y1="590.83" x2="711.48" y2="590.72"/><line class="cls-2" x1="482.56" y1="564" x2="479.74" y2="564.54"/><line class="cls-18" x1="482.56" y1="564" x2="482.35" y2="564"/><line class="cls-13" x1="481.37" y1="564.22" x2="480.5" y2="564.33"/><line class="cls-18" x1="480.07" y1="564.44" x2="479.74" y2="564.54"/><line class="cls-7" x1="519.71" y1="457.67" x2="516.99" y2="428.23"/><path class="cls-25" d="m641.86,575.3l-24.22,4.89,2.82,16.29,23.9-4.78-9.45-61.37,3.04-31.61c.33-6.84.11-13.69-.65-20.53-1.41-12.38-3.8-23.35-7.6-32.69-5.76,28.13-12.27,54.52-13.9,77.12-1.74,17.38-1.63,35.08,1.85,57.46"/><line class="cls-2" x1="620.57" y1="595.5" x2="644.35" y2="590.72"/><line class="cls-18" x1="620.57" y1="595.5" x2="620.78" y2="595.5"/><line class="cls-15" x1="621.87" y1="595.28" x2="643.59" y2="590.94"/><line class="cls-18" x1="644.14" y1="590.83" x2="644.35" y2="590.72"/><line class="cls-2" x1="641.86" y1="576.27" x2="617.85" y2="581.16"/><line class="cls-18" x1="641.86" y1="576.27" x2="641.64" y2="576.38"/><line class="cls-19" x1="640.55" y1="576.6" x2="618.61" y2="580.94"/><line class="cls-18" x1="618.07" y1="581.05" x2="617.85" y2="581.16"/><line class="cls-7" x1="536.65" y1="441.81" x2="537.63" y2="441.05"/><path class="cls-28" d="m539.59,441.7l.11.11c6.63,5,12.27,10.21,16.94,15.86l2.61-28.02"/><path class="cls-18" d="m539.59,441.7l.11.11h.11"/><path class="cls-14" d="m540.78,442.57c5.97,4.67,11.08,9.34,15.53,14.55"/><path class="cls-18" d="m556.53,457.45c0,.11.11.11.22.22v-.22"/><line class="cls-9" x1="556.86" y1="456.25" x2="559.25" y2="430.4"/><line class="cls-18" x1="559.35" y1="429.86" x2="559.35" y2="429.64"/><line class="cls-7" x1="556.75" y1="457.67" x2="559.46" y2="428.23"/><line class="cls-2" x1="713.98" y1="576.27" x2="737.98" y2="581.16"/><line class="cls-18" x1="713.98" y1="576.27" x2="714.19" y2="576.38"/><line class="cls-19" x1="715.28" y1="576.6" x2="737.22" y2="580.94"/><line class="cls-18" x1="737.76" y1="581.05" x2="737.98" y2="581.16"/><line class="cls-7" x1="539.8" y1="441.81" x2="538.83" y2="441.05"/><line class="cls-1" x1="585.42" y1="445.94" x2="585.64" y2="445.39"/><path class="cls-25" d="m718.54,478.3c1.41-12.38,3.8-23.35,7.6-32.69l-25.96-16.62c-14.45-4.89-29.22-5-44.42,0l-25.96,16.62c3.69,9.34,6.19,20.31,7.6,32.69.76,6.84.98,13.69.65,20.53l-3.58,81.9,43.55,2.72,43.55-2.72-3.58-81.9c-.43-6.95-.22-13.79.54-20.53Z"/><line class="cls-7" x1="677.92" y1="582.36" x2="721.47" y2="579.75"/><line class="cls-7" x1="634.36" y1="579.75" x2="677.92" y2="582.36"/><path class="cls-25" d="m726.14,445.61c-3.69,9.34-6.19,20.31-7.6,32.69"/><path class="cls-25" d="m718.54,478.3c-.76,6.84-.98,13.69-.65,20.53"/><path class="cls-25" d="m726.14,445.61c-3.69,9.34-6.19,20.31-7.6,32.69"/><path class="cls-25" d="m655.76,428.88l9.56-10.32h25.31l9.56,10.32c-14.99-1.74-29.76-1.74-44.42,0Z"/><path class="cls-18" d="m698.99,427.91h-.22"/><path class="cls-12" d="m697.68,427.69c-13.47-1.41-26.94-1.41-40.19,0"/><path class="cls-18" d="m657.06,427.8h-.22"/><path class="cls-7" d="m717.56,478.3c1.41-12.38,3.8-23.35,7.6-32.69"/><path class="cls-21" d="m717.99,498.83c-.33-6.84-1.19-13.79-.43-20.53"/><path class="cls-7" d="m638.27,478.3c-1.41-12.38-3.8-23.35-7.6-32.69"/><path class="cls-21" d="m637.84,498.83c.33-6.84,1.19-13.79.43-20.53"/><path class="cls-25" d="m718.54,478.3c1.41-12.38,3.8-23.35,7.6-32.69"/><path class="cls-25" d="m717.89,498.72c-.33-6.84-.11-13.69.65-20.53"/><path class="cls-25" d="m629.69,445.61c3.69,9.34,6.19,20.31,7.6,32.69"/><path class="cls-25" d="m637.29,478.3c.76,6.84.98,13.69.65,20.53"/><path class="cls-25" d="m629.69,445.61c3.69,9.34,6.19,20.31,7.6,32.69"/><line class="cls-1" x1="725.16" y1="445.61" x2="725.38" y2="445.07"/><line class="cls-7" x1="634.47" y1="460.16" x2="721.36" y2="460.16"/><line class="cls-17" x1="634.47" y1="461.03" x2="721.36" y2="461.03"/><path class="cls-27" d="m673.46,461.03l-.22,17.16-.22-17.16c.11-.22.54-.22.43,0h0Z"/><path class="cls-27" d="m682.91,461.03l-.22,17.16-.22-17.16c0-.22.54-.22.43,0h0Z"/><circle class="cls-25" cx="538.17" cy="457.88" r="1.41"/><circle class="cls-25" cx="538.17" cy="475.05" r="1.41"/><circle class="cls-25" cx="538.17" cy="491.23" r="1.41"/><circle class="cls-25" cx="538.17" cy="507.52" r="1.41"/><circle class="cls-25" cx="538.17" cy="523.7" r="1.41"/><circle class="cls-25" cx="538.17" cy="539.89" r="1.41"/><circle class="cls-25" cx="538.17" cy="457.88" r="1.41"/><circle class="cls-25" cx="590.64" cy="581.92" r="1.41"/><circle class="cls-25" cx="590.2" cy="592.46" r="1.41"/><circle class="cls-25" cx="485.82" cy="581.92" r="1.41"/><circle class="cls-25" cx="486.26" cy="592.46" r="1.41"/><line class="cls-2" x1="720.93" y1="530.33" x2="722.45" y2="548.03"/><path class="cls-27" d="m721.14,530.33l1.19,17.7-1.63-17.7c0-.22.43-.33.43,0h0Z"/><line class="cls-2" x1="634.79" y1="530.42" x2="633.38" y2="548.12"/><path class="cls-27" d="m635.12,530.42l-1.63,17.7,1.19-17.7c0-.33.43-.22.43,0h0Z"/><path class="cls-26" d="m135.89,443.6l-23.68-12.6c-7.06-2.5-36.71-2.61-44.42,0l-23.68,12.6c4.89,15.31,7.06,31.82,5.76,49.75l-2.93,87.44h86.02l-2.93-87.44c-1.19-17.92.98-34.43,5.87-49.75Z"/><circle class="cls-25" cx="85.16" cy="577.96" r="2.39"/><path class="cls-27" d="m90.16,574.59l-.22-145.11c0-.22.43-.33.43,0,0,.11-.22,145.11-.22,145.11h0Z"/><path class="cls-25" d="m107.43,462.07c-2.17,43.45-13.47,74.4-25.2,123.06l-35.3-4.34,2.93-87.44c1.19-17.92-.87-34.43-5.76-49.75l23.68-12.6,15.86,18.9h23.68l.11,12.16Z"/><circle class="cls-25" cx="94.29" cy="577.96" r="2.39"/><path class="cls-25" d="m72.56,462.07c2.17,43.45,13.47,74.4,25.2,123.06l35.3-4.34-2.93-87.44c-1.19-17.92.87-34.43,5.76-49.75l-23.68-12.6-11.73,14.01c-2.61,3.15-6.52,5-10.64,5h-17.27v12.06Z"/><path class="cls-25" d="m130.02,493.35c-1.19-17.92.87-34.43,5.76-49.75h0c.65.65,1.09,1.41,1.41,2.28,6.08,19.88,10.21,47.03,13.69,76.79.22,2.39.43,4.78.54,7.17.54,18.36.22,37.36-1.52,59.2l-22.7-3.91,5.76-49.31-2.93-42.47Z"/><path class="cls-27" d="m132.74,535.92l2.72-23.9-2.28,23.9c0,.33-.43.22-.43,0h0Z"/><path class="cls-25" d="m49.86,493.35c1.19-17.92-.87-34.43-5.76-49.75h0c-.65.65-1.09,1.41-1.41,2.28-6.08,19.88-10.21,47.03-13.58,76.79-.22,2.39-.43,4.78-.54,7.17-.54,18.36-.22,37.36,1.52,59.2l22.7-3.91-5.76-49.31,2.82-42.47Z"/><path class="cls-27" d="m46.71,535.92l-2.39-23.9,2.82,23.9c.11.22-.33.33-.43,0h0Z"/><path class="cls-25" d="m67.57,430.68l10.32-10.75h24.22l10.32,10.75c-14.99-2.17-29.98-2.17-44.86,0Z"/><path class="cls-21" d="m79.19,424.27c0-.33,21.61-.33,21.61,0"/><path class="cls-21" d="m79.19,426.44c0-.33,21.61-.33,21.61,0"/><path class="cls-25" d="m79.19,425.35c0-.33,21.61-.33,21.61,0"/><path class="cls-26" d="m249.39,461.09c-2.17,43.45-13.47,74.4-25.09,123.06l-35.3-4.34,2.93-87.44c1.19-17.92-.87-34.43-5.76-49.75l23.68-12.6,15.97,18.9h23.68l-.11,12.16Z"/><path class="cls-26" d="m214.52,461.09c2.17,43.45,13.47,74.4,25.09,123.06l35.3-4.34-2.93-87.44c-1.19-17.92.87-34.43,5.76-49.75l-23.57-12.6-11.73,13.9c-2.61,3.15-6.52,5-10.64,5h-17.16l-.11,12.16Z"/><path class="cls-25" d="m272.09,492.26c-1.19-17.92.87-34.43,5.76-49.75h0c.65.65,1.09,1.41,1.41,2.28,6.08,19.88,10.21,47.03,13.58,76.79.22,2.39.43,4.78.54,7.17.54,18.36.22,37.36-1.52,59.2l-22.7-3.91,5.76-49.31-2.82-42.47Z"/><path class="cls-25" d="m191.82,492.26c1.19-17.92-.87-34.43-5.76-49.75h0c-.65.65-1.09,1.41-1.41,2.28-6.08,19.88-10.21,47.03-13.69,76.79-.22,2.39-.43,4.78-.54,7.17-.54,18.36-.22,37.36,1.52,59.2l22.7-3.91-5.76-49.31,2.93-42.47Z"/><line class="cls-17" x1="84.84" y1="574.81" x2="95.16" y2="574.81"/><path class="cls-25" d="m277.85,442.51l-23.68-12.49c-14.23-4.89-29-5.1-44.42,0l-23.68,12.6c4.89,15.31,7.06,31.82,5.76,49.75l-2.93,87.44h86.02l-2.93-87.44c-1.19-18.03.98-34.54,5.87-49.85Z"/><path class="cls-17" d="m231.9,579.8c1.63,0,1.63-151.84,0-151.84s-1.63,151.84,0,151.84Z"/><path class="cls-25" d="m67.57,430.68l10.32-10.75c2.93,9.45,7.17,19.44,12.27,29.98-7.6,2.39-14.77,5.32-21.51,8.69-.87-9.34-1.19-18.57-1.09-27.91Z"/><path class="cls-21" d="m68.11,430.89c-.11,8.8.22,17.81,1.09,26.94,6.3-3.15,13.14-5.87,20.31-8.15"/><path class="cls-26" d="m391.89,460.54c-2.17,43.45-13.47,74.4-25.09,123.06l-35.3-4.34,2.93-87.44c1.19-17.92-.87-34.43-5.76-49.75l23.68-12.6,15.97,18.9h23.68l-.11,12.16Z"/><path class="cls-26" d="m357.03,460.54c2.17,43.45,13.47,74.4,25.09,123.06l35.3-4.34-2.93-87.44c-1.19-17.92.87-34.43,5.76-49.75l-23.68-12.6-11.73,13.9c-2.72,3.15-6.52,5-10.64,5h-17.16v12.16Z"/><path class="cls-25" d="m112.32,430.68l-10.32-10.75c-2.93,9.45-7.17,19.44-12.27,29.98,7.6,2.39,14.77,5.32,21.51,8.69.87-9.34,1.3-18.57,1.09-27.91Z"/><path class="cls-25" d="m414.59,491.83c-1.19-17.92.87-34.43,5.76-49.75h0c.65.65,1.09,1.41,1.41,2.28,6.08,19.88,10.21,47.03,13.58,76.79.22,2.39.43,4.78.54,7.17.54,18.36.22,37.36-1.52,59.2l-22.7-3.91,5.76-49.31-2.82-42.47Z"/><path class="cls-21" d="m111.88,430.89c.11,8.8-.22,17.81-1.09,26.94-6.41-3.15-13.14-5.87-20.31-8.15"/><path class="cls-25" d="m334.33,491.83c1.19-17.92-.87-34.43-5.76-49.75h0c-.65.65-1.09,1.41-1.41,2.28-6.08,19.88-10.21,47.03-13.58,76.79-.22,2.39-.43,4.78-.54,7.17-.54,18.36-.22,37.36,1.52,59.2l22.7-3.91-5.76-49.31,2.82-42.47Z"/><path class="cls-25" d="m420.35,442.08l-23.68-12.6c-14.23-4.89-29-5.1-44.42,0l-23.68,12.6c4.89,15.31,7.06,31.82,5.76,49.75l-2.93,87.44h86.02l-2.93-87.44c-1.19-17.92.98-34.43,5.87-49.75Z"/><circle class="cls-25" cx="369.74" cy="575.89" r="2.39"/><circle class="cls-25" cx="378.97" cy="575.89" r="2.39"/><polyline class="cls-25" points="374.41 427.53 377.45 581.22 417.42 579.26"/><polyline class="cls-25" points="331.39 579.26 371.15 581.22 374.41 427.53"/><path class="cls-25" d="m351.16,429.92l11.19-11.51h24.22l10.75,11.51c-14.99-2.17-31.28-2.17-46.16,0Z"/><path class="cls-7" d="m396.56,429.16c-14.99-2.17-29.76-2.17-44.75,0"/><path class="cls-25" d="m254.71,430.24l-10.43-11.19h-24.33l-10.64,11.19c15.1-1.41,30.2-1.41,45.4,0Z"/><path class="cls-7" d="m209.96,429.48c14.66-1.3,29.33-1.3,43.88,0"/><path class="cls-17" d="m333.35,462.72c-9.56,18.9-14.77,63.21-19.88,107.75"/><path class="cls-17" d="m415.57,462.72c9.56,18.9,14.77,63.21,19.88,107.75"/><path class="cls-17" d="m190.85,463.04c-9.56,18.9-14.77,63.21-19.88,107.64"/><path class="cls-17" d="m273.07,463.04c9.56,18.9,14.77,63.21,19.88,107.64"/><line class="cls-17" x1="150.98" y1="572.2" x2="147.83" y2="588.71"/><line class="cls-17" x1="29.01" y1="572.2" x2="32.05" y2="588.71"/><path class="cls-27" d="m189.11,534.84l-1.63,18.25,1.19-18.36c.11-.22.54-.11.43.11h0Z"/><path class="cls-27" d="m275.13,534.84l1.19,18.36-1.63-18.25c0-.33.43-.43.43-.11h0Z"/><path class="cls-27" d="m417.63,534.08l1.19,18.36-1.63-18.25c0-.33.43-.33.43-.11h0Z"/><path class="cls-27" d="m331.72,534.19l-1.63,18.25,1.19-18.36c0-.22.43-.22.43.11h0Z"/></svg>